# Blender v2.77 (sub 0) OBJ File: ''
# www.blender.org
mtllib marker.mtl
o Marker
v -0.375080 0.000000 -0.100502
v -0.375080 0.000000 0.100502
v -0.388311 0.000000 -0.000000
v -0.336287 0.000000 0.194156
v -0.336287 0.000000 -0.194156
v -0.274577 0.000000 0.274577
v -0.274577 0.000000 -0.274577
v -0.194156 0.000000 0.336287
v -0.194156 0.000000 -0.336287
v -0.100502 0.000000 0.375080
v -0.100502 0.000000 -0.375080
v -0.000000 0.000000 0.388311
v 0.000000 0.000000 -0.388311
v 0.100502 0.000000 0.375080
v 0.100502 0.000000 -0.375080
v 0.194156 0.000000 0.336287
v 0.194156 0.000000 -0.336287
v 0.274577 0.000000 0.274577
v 0.274577 0.000000 -0.274577
v 0.336287 0.000000 0.194156
v 0.336287 0.000000 -0.194156
v 0.375080 0.000000 0.100502
v 0.375080 0.000000 -0.100502
v 0.388311 0.000000 0.000000
v -0.375080 0.192437 0.100502
v -0.375080 0.192437 -0.100502
v -0.388311 0.192437 -0.000000
v -0.336287 0.192437 0.194156
v -0.336287 0.192437 -0.194156
v -0.274577 0.192437 0.274577
v -0.274577 0.192437 -0.274577
v -0.194156 0.192437 0.336287
v -0.194156 0.192437 -0.336287
v -0.100502 0.192437 0.375080
v -0.100502 0.192437 -0.375080
v -0.000000 0.192437 0.388311
v 0.000000 0.192437 -0.388311
v 0.100502 0.192437 0.375080
v 0.100502 0.192437 -0.375080
v 0.194156 0.192437 0.336287
v 0.194156 0.192437 -0.336287
v 0.274577 0.192437 0.274577
v 0.274577 0.192437 -0.274577
v 0.336287 0.192437 0.194156
v 0.336287 0.192437 -0.194156
v 0.375080 0.192437 0.100502
v 0.375080 0.192437 -0.100502
v 0.388311 0.192437 0.000000
vt 0.7467 0.6657
vt 0.6353 0.6657
vt 0.6910 0.6584
vt 0.8268 0.2541
vt 0.9373 0.2686
vt 0.7725 0.2686
vt 0.5022 0.9372
vt 0.6656 0.9157
vt 0.7175 0.9372
vt 0.4817 0.0306
vt 0.6951 0.0587
vt 0.4330 0.0587
vt 0.4293 0.3873
vt 0.6891 0.3530
vt 0.7337 0.3873
vt 0.4691 0.1570
vt 0.7709 0.1968
vt 0.4293 0.1968
vt 0.4183 0.5460
vt 0.7570 0.5016
vt 0.7912 0.5462
vt 0.0289 0.7199
vt 0.3986 0.7686
vt 0.0008 0.7686
vt 0.0008 0.6143
vt 0.3952 0.5624
vt 0.4167 0.6143
vt 0.0154 0.3433
vt 0.4276 0.3975
vt 0.0008 0.3975
vt 0.0008 0.1735
vt 0.4276 0.1735
vt 0.4276 0.2297
vt 0.0008 0.0008
vt 0.4313 0.0008
vt 0.0082 0.0565
vt 0.0008 0.3992
vt 0.4276 0.3992
vt 0.4131 0.4535
vt 0.0008 0.5088
vt 0.4167 0.5088
vt 0.0223 0.5607
vt 0.0008 0.6696
vt 0.3986 0.6696
vt 0.3705 0.7182
vt 0.4183 0.5478
vt 0.7912 0.5478
vt 0.4525 0.5924
vt 0.4293 0.1156
vt 0.7709 0.1156
vt 0.7311 0.1554
vt 0.4293 0.2813
vt 0.7337 0.2813
vt 0.4739 0.3155
vt 0.4330 0.0604
vt 0.6951 0.0604
vt 0.6464 0.0885
vt 0.5022 0.8925
vt 0.7175 0.8925
vt 0.5542 0.9140
vt 0.7725 0.2379
vt 0.9373 0.2379
vt 0.8830 0.2524
vt 0.6353 0.6494
vt 0.7467 0.6494
vt 0.6910 0.6567
vt 0.6353 0.6404
vt 0.7467 0.6404
vt 0.6910 0.6477
vt 0.8839 0.9157
vt 0.7734 0.9302
vt 0.7192 0.9157
vt 0.5963 0.1117
vt 0.4330 0.0902
vt 0.6483 0.0902
vt 0.6914 0.4248
vt 0.4780 0.4529
vt 0.4293 0.4248
vt 0.6891 0.4231
vt 0.4293 0.3889
vt 0.7337 0.3889
vt 0.7709 0.1984
vt 0.4691 0.2382
vt 0.4293 0.1984
vt 0.7569 0.6387
vt 0.4183 0.5941
vt 0.7912 0.5941
vt 0.7980 0.6696
vt 0.4283 0.7182
vt 0.4002 0.6696
vt 0.3952 0.6679
vt 0.0008 0.6160
vt 0.4167 0.6160
vt 0.4276 0.2314
vt 0.0154 0.2856
vt 0.0008 0.2314
vt 0.4276 0.1718
vt 0.0008 0.1718
vt 0.4276 0.1156
vt 0.4313 0.1139
vt 0.0008 0.1139
vt 0.0082 0.0582
vt 0.4276 0.3416
vt 0.0008 0.3416
vt 0.4131 0.2873
vt 0.4167 0.5071
vt 0.0008 0.5071
vt 0.0223 0.4552
vt 0.7980 0.7686
vt 0.4002 0.7686
vt 0.7699 0.7199
vt 0.7912 0.4999
vt 0.4183 0.4998
vt 0.4526 0.4552
vt 0.7709 0.2796
vt 0.4293 0.2796
vt 0.7311 0.2399
vt 0.7337 0.3514
vt 0.4293 0.3514
vt 0.4739 0.3172
vt 0.6951 0.0289
vt 0.4330 0.0289
vt 0.6464 0.0008
vt 0.6336 0.6619
vt 0.4183 0.6619
vt 0.4703 0.6404
vt 0.9001 0.4181
vt 0.7354 0.4181
vt 0.8459 0.4035
vt 0.8598 0.6657
vt 0.7484 0.6657
vt 0.8041 0.6584
vt 0.9332 0.2223
vt 0.9894 0.1156
vt 0.9894 0.2223
vt 0.1019 0.7702
vt 0.1019 0.8908
vt 0.0522 0.7964
vt 0.0008 0.9992
vt 0.0570 0.8925
vt 0.0570 0.9992
vt 0.8425 0.4256
vt 0.8425 0.5462
vt 0.7928 0.4518
vt 0.8956 0.5323
vt 0.9518 0.4256
vt 0.9518 0.5323
vt 0.9137 0.7918
vt 0.8575 0.8985
vt 0.8575 0.7918
vt 0.8108 0.1075
vt 0.7546 0.0008
vt 0.8108 0.0008
vt 0.2708 0.8925
vt 0.3270 0.9992
vt 0.2708 0.9992
vt 0.8510 0.7901
vt 0.8510 0.6696
vt 0.9007 0.6957
vt 0.0506 0.7702
vt 0.0506 0.8908
vt 0.0008 0.8646
vt 0.2064 0.8908
vt 0.2064 0.7702
vt 0.2561 0.7964
vt 0.7187 0.7702
vt 0.7187 0.8908
vt 0.6690 0.8646
vt 0.7725 0.2362
vt 0.7725 0.1156
vt 0.8223 0.1418
vt 0.7851 0.2813
vt 0.7851 0.4018
vt 0.7354 0.3756
vt 0.7868 0.4018
vt 0.7868 0.2813
vt 0.8365 0.3075
vt 0.6673 0.7702
vt 0.6673 0.8908
vt 0.6176 0.8646
vt 0.9586 0.7762
vt 0.9024 0.6696
vt 0.9586 0.6696
vt 0.8125 0.0008
vt 0.8687 0.1075
vt 0.8125 0.1075
vt 0.9648 0.5478
vt 0.9086 0.6545
vt 0.9086 0.5478
vt 0.7928 0.6545
vt 0.8490 0.5478
vt 0.8490 0.6545
vt 0.7701 0.7702
vt 0.7701 0.8908
vt 0.7204 0.7964
vt 0.8896 0.3879
vt 0.9458 0.2813
vt 0.9458 0.3879
vt 0.5645 0.7702
vt 0.5645 0.8908
vt 0.5148 0.7964
vt 0.9282 0.1075
vt 0.9844 0.0008
vt 0.9844 0.1075
vt 0.3075 0.7702
vt 0.3075 0.8908
vt 0.2578 0.7964
vt 0.1550 0.9992
vt 0.2112 0.8925
vt 0.2112 0.9992
vt 0.8736 0.1156
vt 0.8736 0.2362
vt 0.8239 0.1418
vt 0.2129 0.9992
vt 0.2691 0.8925
vt 0.2691 0.9992
vt 0.8558 0.7918
vt 0.7996 0.8985
vt 0.7996 0.7918
vt 0.3286 0.9992
vt 0.3848 0.8925
vt 0.3848 0.9992
vt 0.9069 0.6545
vt 0.8507 0.5478
vt 0.9069 0.5478
vt 0.9154 0.7918
vt 0.9716 0.8985
vt 0.9154 0.8985
vt 0.7996 0.7901
vt 0.7996 0.6696
vt 0.8494 0.6957
vt 0.3589 0.7702
vt 0.3589 0.8908
vt 0.3092 0.8646
vt 0.1036 0.8908
vt 0.1036 0.7702
vt 0.1533 0.7964
vt 0.8939 0.4256
vt 0.8939 0.5462
vt 0.8442 0.5200
vt 0.4120 0.8908
vt 0.4120 0.7702
vt 0.4617 0.7964
vt 0.5131 0.7702
vt 0.5131 0.8908
vt 0.4634 0.8646
vt 0.8382 0.4018
vt 0.8382 0.2813
vt 0.8879 0.3075
vt 0.4103 0.7702
vt 0.4103 0.8908
vt 0.3606 0.8646
vt 0.4427 0.9992
vt 0.3865 0.8925
vt 0.4427 0.8925
vt 0.8753 0.1156
vt 0.9315 0.2223
vt 0.8753 0.2223
vt 0.8704 0.1075
vt 0.9266 0.0008
vt 0.9266 0.1075
vt 0.7529 0.0008
vt 0.6968 0.1075
vt 0.6968 0.0008
vt 0.0972 0.9992
vt 0.1533 0.8925
vt 0.1533 0.9992
vt 0.2047 0.7702
vt 0.2047 0.8908
vt 0.1550 0.7964
vt 0.4444 0.9992
vt 0.5006 0.8925
vt 0.5006 0.9992
vt 0.6159 0.7702
vt 0.6159 0.8908
vt 0.5662 0.7964
vn 0.0000 -1.0000 0.0000
vn 0.0000 1.0000 0.0000
vn -0.9914 0.0000 -0.1305
vn -0.9239 0.0000 -0.3827
vn -0.7934 0.0000 -0.6088
vn -0.6088 0.0000 -0.7934
vn -0.3827 0.0000 -0.9239
vn -0.1305 0.0000 -0.9914
vn 0.1305 0.0000 -0.9914
vn 0.3827 0.0000 -0.9239
vn 0.6088 0.0000 -0.7934
vn 0.7934 0.0000 -0.6088
vn 0.9239 0.0000 -0.3827
vn 0.9914 0.0000 -0.1305
vn 0.9914 0.0000 0.1305
vn 0.9239 0.0000 0.3827
vn 0.7934 0.0000 0.6088
vn 0.6088 0.0000 0.7934
vn 0.3827 0.0000 0.9239
vn 0.1305 0.0000 0.9914
vn -0.1305 0.0000 0.9914
vn -0.3827 0.0000 0.9239
vn -0.6088 0.0000 0.7934
vn -0.7934 0.0000 0.6088
vn -0.9239 0.0000 0.3827
vn -0.9914 0.0000 0.1305
usemtl None
s off
f 1/1/1 2/2/1 3/3/1
f 2/4/1 1/5/1 4/6/1
f 4/7/1 1/8/1 5/9/1
f 4/10/1 5/11/1 6/12/1
f 6/13/1 5/14/1 7/15/1
f 6/16/1 7/17/1 8/18/1
f 8/19/1 7/20/1 9/21/1
f 8/22/1 9/23/1 10/24/1
f 10/25/1 9/26/1 11/27/1
f 10/28/1 11/29/1 12/30/1
f 12/31/1 11/32/1 13/33/1
f 12/34/1 13/35/1 14/36/1
f 14/37/1 13/38/1 15/39/1
f 14/40/1 15/41/1 16/42/1
f 16/43/1 15/44/1 17/45/1
f 16/46/1 17/47/1 18/48/1
f 18/49/1 17/50/1 19/51/1
f 18/52/1 19/53/1 20/54/1
f 20/55/1 19/56/1 21/57/1
f 20/58/1 21/59/1 22/60/1
f 22/61/1 21/62/1 23/63/1
f 22/64/1 23/65/1 24/66/1
f 25/67/2 26/68/2 27/69/2
f 26/70/2 25/71/2 28/72/2
f 26/73/2 28/74/2 29/75/2
f 29/76/2 28/77/2 30/78/2
f 29/79/2 30/80/2 31/81/2
f 31/82/2 30/83/2 32/84/2
f 31/85/2 32/86/2 33/87/2
f 33/88/2 32/89/2 34/90/2
f 33/91/2 34/92/2 35/93/2
f 35/94/2 34/95/2 36/96/2
f 35/97/2 36/98/2 37/99/2
f 37/100/2 36/101/2 38/102/2
f 37/103/2 38/104/2 39/105/2
f 39/106/2 38/107/2 40/108/2
f 39/109/2 40/110/2 41/111/2
f 41/112/2 40/113/2 42/114/2
f 41/115/2 42/116/2 43/117/2
f 43/118/2 42/119/2 44/120/2
f 43/121/2 44/122/2 45/123/2
f 45/124/2 44/125/2 46/126/2
f 45/127/2 46/128/2 47/129/2
f 47/130/2 46/131/2 48/132/2
f 26/133/3 3/134/3 27/135/3
f 3/136/3 26/137/3 1/138/3
f 29/139/4 1/140/4 26/141/4
f 1/142/4 29/143/4 5/144/4
f 31/145/5 5/146/5 29/147/5
f 5/148/5 31/149/5 7/150/5
f 31/151/6 9/152/6 7/153/6
f 9/154/6 31/155/6 33/156/6
f 33/157/7 11/158/7 9/159/7
f 11/160/7 33/161/7 35/162/7
f 35/163/8 13/164/8 11/165/8
f 13/166/8 35/167/8 37/168/8
f 37/169/9 15/170/9 13/171/9
f 15/172/9 37/173/9 39/174/9
f 39/175/10 17/176/10 15/177/10
f 17/178/10 39/179/10 41/180/10
f 41/181/11 19/182/11 17/183/11
f 19/184/11 41/185/11 43/186/11
f 19/187/12 45/188/12 21/189/12
f 45/190/12 19/191/12 43/192/12
f 21/193/13 47/194/13 23/195/13
f 47/196/13 21/197/13 45/198/13
f 23/199/14 48/200/14 24/201/14
f 48/202/14 23/203/14 47/204/14
f 24/205/15 46/206/15 22/207/15
f 46/208/15 24/209/15 48/210/15
f 22/211/16 44/212/16 20/213/16
f 44/214/16 22/215/16 46/216/16
f 20/217/17 42/218/17 18/219/17
f 42/220/17 20/221/17 44/222/17
f 42/223/18 16/224/18 18/225/18
f 16/226/18 42/227/18 40/228/18
f 40/229/19 14/230/19 16/231/19
f 14/232/19 40/233/19 38/234/19
f 38/235/20 12/236/20 14/237/20
f 12/238/20 38/239/20 36/240/20
f 36/241/21 10/242/21 12/243/21
f 10/244/21 36/245/21 34/246/21
f 34/247/22 8/248/22 10/249/22
f 8/250/22 34/251/22 32/252/22
f 32/253/23 6/254/23 8/255/23
f 6/256/23 32/257/23 30/258/23
f 28/259/24 6/260/24 30/261/24
f 6/262/24 28/263/24 4/264/24
f 25/265/25 4/266/25 28/267/25
f 4/268/25 25/269/25 2/270/25
f 27/271/26 2/272/26 25/273/26
f 2/274/26 27/275/26 3/276/26
