solid marker
facet normal 0.0 0.0 -1.0
  outer loop
    vertex -8.594458139422418 2.302878117841329 0.0
    vertex -8.59445813942242 -2.3028781178413227 0.0
    vertex -8.89763779527559 1.0896463645956766e-15 0.0
  endloop
endfacet
facet normal 0.0 0.0 -1.0
  outer loop
    vertex -8.59445813942242 -2.3028781178413227 0.0
    vertex -8.594458139422418 2.302878117841329 0.0
    vertex -7.705580364381228 -4.448818897637794 0.0
  endloop
endfacet
facet normal 0.0 0.0 -1.0
  outer loop
    vertex -7.705580364381228 -4.448818897637794 0.0
    vertex -8.594458139422418 2.302878117841329 0.0
    vertex -7.705580364381224 4.448818897637798 0.0
  endloop
endfacet
facet normal 0.0 0.0 -1.0
  outer loop
    vertex -7.705580364381228 -4.448818897637794 0.0
    vertex -7.705580364381224 4.448818897637798 0.0
    vertex -6.291580021581096 -6.291580021581089 0.0
  endloop
endfacet
facet normal 0.0 0.0 -1.0
  outer loop
    vertex -6.291580021581096 -6.291580021581089 0.0
    vertex -7.705580364381224 4.448818897637798 0.0
    vertex -6.291580021581091 6.291580021581093 0.0
  endloop
endfacet
facet normal 0.0 0.0 -1.0
  outer loop
    vertex -6.291580021581096 -6.291580021581089 0.0
    vertex -6.291580021581091 6.291580021581093 0.0
    vertex -4.448818897637799 -7.705580364381223 0.0
  endloop
endfacet
facet normal 0.0 0.0 -1.0
  outer loop
    vertex -4.448818897637799 -7.705580364381223 0.0
    vertex -6.291580021581091 6.291580021581093 0.0
    vertex -4.448818897637794 7.705580364381228 0.0
  endloop
endfacet
facet normal 0.0 0.0 -1.0
  outer loop
    vertex -4.448818897637799 -7.705580364381223 0.0
    vertex -4.448818897637794 7.705580364381228 0.0
    vertex -2.302878117841333 -8.594458139422416 0.0
  endloop
endfacet
facet normal 0.0 0.0 -1.0
  outer loop
    vertex -2.302878117841333 -8.594458139422416 0.0
    vertex -4.448818897637794 7.705580364381228 0.0
    vertex -2.3028781178413253 8.59445813942242 0.0
  endloop
endfacet
facet normal 0.0 0.0 -1.0
  outer loop
    vertex -2.302878117841333 -8.594458139422416 0.0
    vertex -2.3028781178413253 8.59445813942242 0.0
    vertex -1.6344695468935147e-15 -8.89763779527559 0.0
  endloop
endfacet
facet normal 0.0 0.0 -1.0
  outer loop
    vertex -1.6344695468935147e-15 -8.89763779527559 0.0
    vertex -2.3028781178413253 8.59445813942242 0.0
    vertex 5.448231822978383e-16 8.89763779527559 0.0
  endloop
endfacet
facet normal 0.0 0.0 -1.0
  outer loop
    vertex -1.6344695468935147e-15 -8.89763779527559 0.0
    vertex 5.448231822978383e-16 8.89763779527559 0.0
    vertex 2.3028781178413222 -8.59445813942242 0.0
  endloop
endfacet
facet normal 0.0 0.0 -1.0
  outer loop
    vertex 2.3028781178413222 -8.59445813942242 0.0
    vertex 5.448231822978383e-16 8.89763779527559 0.0
    vertex 2.3028781178413285 8.594458139422418 0.0
  endloop
endfacet
facet normal 0.0 0.0 -1.0
  outer loop
    vertex 2.3028781178413222 -8.59445813942242 0.0
    vertex 2.3028781178413285 8.594458139422418 0.0
    vertex 4.448818897637789 -7.7055803643812295 0.0
  endloop
endfacet
facet normal 0.0 0.0 -1.0
  outer loop
    vertex 4.448818897637789 -7.7055803643812295 0.0
    vertex 2.3028781178413285 8.594458139422418 0.0
    vertex 4.448818897637796 7.705580364381225 0.0
  endloop
endfacet
facet normal 0.0 0.0 -1.0
  outer loop
    vertex 4.448818897637789 -7.7055803643812295 0.0
    vertex 4.448818897637796 7.705580364381225 0.0
    vertex 6.291580021581091 -6.291580021581094 0.0
  endloop
endfacet
facet normal 0.0 0.0 -1.0
  outer loop
    vertex 6.291580021581091 -6.291580021581094 0.0
    vertex 4.448818897637796 7.705580364381225 0.0
    vertex 6.291580021581093 6.291580021581091 0.0
  endloop
endfacet
facet normal 0.0 0.0 -1.0
  outer loop
    vertex 6.291580021581091 -6.291580021581094 0.0
    vertex 6.291580021581093 6.291580021581091 0.0
    vertex 7.705580364381223 -4.448818897637799 0.0
  endloop
endfacet
facet normal 0.0 0.0 -1.0
  outer loop
    vertex 7.705580364381223 -4.448818897637799 0.0
    vertex 6.291580021581093 6.291580021581091 0.0
    vertex 7.705580364381227 4.4488188976377945 0.0
  endloop
endfacet
facet normal 0.0 0.0 -1.0
  outer loop
    vertex 7.705580364381223 -4.448818897637799 0.0
    vertex 7.705580364381227 4.4488188976377945 0.0
    vertex 8.594458139422416 -2.3028781178413333 0.0
  endloop
endfacet
facet normal 0.0 0.0 -1.0
  outer loop
    vertex 8.594458139422416 -2.3028781178413333 0.0
    vertex 7.705580364381227 4.4488188976377945 0.0
    vertex 8.59445813942242 2.3028781178413262 0.0
  endloop
endfacet
facet normal 0.0 0.0 -1.0
  outer loop
    vertex 8.594458139422416 -2.3028781178413333 0.0
    vertex 8.59445813942242 2.3028781178413262 0.0
    vertex 8.89763779527559 0.0 0.0
  endloop
endfacet
facet normal 0.0 0.0 1.0
  outer loop
    vertex -8.59445813942242 -2.3028781178413227 4.409448818897638
    vertex -8.594458139422418 2.302878117841329 4.409448818897638
    vertex -8.89763779527559 1.0896463645956766e-15 4.409448818897638
  endloop
endfacet
facet normal 0.0 0.0 1.0
  outer loop
    vertex -8.594458139422418 2.302878117841329 4.409448818897638
    vertex -8.59445813942242 -2.3028781178413227 4.409448818897638
    vertex -7.705580364381228 -4.448818897637794 4.409448818897638
  endloop
endfacet
facet normal 0.0 0.0 1.0
  outer loop
    vertex -8.594458139422418 2.302878117841329 4.409448818897638
    vertex -7.705580364381228 -4.448818897637794 4.409448818897638
    vertex -7.705580364381224 4.448818897637798 4.409448818897638
  endloop
endfacet
facet normal 0.0 0.0 1.0
  outer loop
    vertex -7.705580364381224 4.448818897637798 4.409448818897638
    vertex -7.705580364381228 -4.448818897637794 4.409448818897638
    vertex -6.291580021581096 -6.291580021581089 4.409448818897638
  endloop
endfacet
facet normal 0.0 0.0 1.0
  outer loop
    vertex -7.705580364381224 4.448818897637798 4.409448818897638
    vertex -6.291580021581096 -6.291580021581089 4.409448818897638
    vertex -6.291580021581091 6.291580021581093 4.409448818897638
  endloop
endfacet
facet normal 0.0 0.0 1.0
  outer loop
    vertex -6.291580021581091 6.291580021581093 4.409448818897638
    vertex -6.291580021581096 -6.291580021581089 4.409448818897638
    vertex -4.448818897637799 -7.705580364381223 4.409448818897638
  endloop
endfacet
facet normal 0.0 0.0 1.0
  outer loop
    vertex -6.291580021581091 6.291580021581093 4.409448818897638
    vertex -4.448818897637799 -7.705580364381223 4.409448818897638
    vertex -4.448818897637794 7.705580364381228 4.409448818897638
  endloop
endfacet
facet normal 0.0 0.0 1.0
  outer loop
    vertex -4.448818897637794 7.705580364381228 4.409448818897638
    vertex -4.448818897637799 -7.705580364381223 4.409448818897638
    vertex -2.302878117841333 -8.594458139422416 4.409448818897638
  endloop
endfacet
facet normal 0.0 0.0 1.0
  outer loop
    vertex -4.448818897637794 7.705580364381228 4.409448818897638
    vertex -2.302878117841333 -8.594458139422416 4.409448818897638
    vertex -2.3028781178413253 8.59445813942242 4.409448818897638
  endloop
endfacet
facet normal 0.0 0.0 1.0
  outer loop
    vertex -2.3028781178413253 8.59445813942242 4.409448818897638
    vertex -2.302878117841333 -8.594458139422416 4.409448818897638
    vertex -1.6344695468935147e-15 -8.89763779527559 4.409448818897638
  endloop
endfacet
facet normal 0.0 0.0 1.0
  outer loop
    vertex -2.3028781178413253 8.59445813942242 4.409448818897638
    vertex -1.6344695468935147e-15 -8.89763779527559 4.409448818897638
    vertex 5.448231822978383e-16 8.89763779527559 4.409448818897638
  endloop
endfacet
facet normal 0.0 0.0 1.0
  outer loop
    vertex 5.448231822978383e-16 8.89763779527559 4.409448818897638
    vertex -1.6344695468935147e-15 -8.89763779527559 4.409448818897638
    vertex 2.3028781178413222 -8.59445813942242 4.409448818897638
  endloop
endfacet
facet normal 0.0 0.0 1.0
  outer loop
    vertex 5.448231822978383e-16 8.89763779527559 4.409448818897638
    vertex 2.3028781178413222 -8.59445813942242 4.409448818897638
    vertex 2.3028781178413285 8.594458139422418 4.409448818897638
  endloop
endfacet
facet normal 0.0 0.0 1.0
  outer loop
    vertex 2.3028781178413285 8.594458139422418 4.409448818897638
    vertex 2.3028781178413222 -8.59445813942242 4.409448818897638
    vertex 4.448818897637789 -7.7055803643812295 4.409448818897638
  endloop
endfacet
facet normal 0.0 0.0 1.0
  outer loop
    vertex 2.3028781178413285 8.594458139422418 4.409448818897638
    vertex 4.448818897637789 -7.7055803643812295 4.409448818897638
    vertex 4.448818897637796 7.705580364381225 4.409448818897638
  endloop
endfacet
facet normal 0.0 0.0 1.0
  outer loop
    vertex 4.448818897637796 7.705580364381225 4.409448818897638
    vertex 4.448818897637789 -7.7055803643812295 4.409448818897638
    vertex 6.291580021581091 -6.291580021581094 4.409448818897638
  endloop
endfacet
facet normal 0.0 0.0 1.0
  outer loop
    vertex 4.448818897637796 7.705580364381225 4.409448818897638
    vertex 6.291580021581091 -6.291580021581094 4.409448818897638
    vertex 6.291580021581093 6.291580021581091 4.409448818897638
  endloop
endfacet
facet normal 0.0 0.0 1.0
  outer loop
    vertex 6.291580021581093 6.291580021581091 4.409448818897638
    vertex 6.291580021581091 -6.291580021581094 4.409448818897638
    vertex 7.705580364381223 -4.448818897637799 4.409448818897638
  endloop
endfacet
facet normal 0.0 0.0 1.0
  outer loop
    vertex 6.291580021581093 6.291580021581091 4.409448818897638
    vertex 7.705580364381223 -4.448818897637799 4.409448818897638
    vertex 7.705580364381227 4.4488188976377945 4.409448818897638
  endloop
endfacet
facet normal 0.0 0.0 1.0
  outer loop
    vertex 7.705580364381227 4.4488188976377945 4.409448818897638
    vertex 7.705580364381223 -4.448818897637799 4.409448818897638
    vertex 8.594458139422416 -2.3028781178413333 4.409448818897638
  endloop
endfacet
facet normal 0.0 0.0 1.0
  outer loop
    vertex 7.705580364381227 4.4488188976377945 4.409448818897638
    vertex 8.594458139422416 -2.3028781178413333 4.409448818897638
    vertex 8.59445813942242 2.3028781178413262 4.409448818897638
  endloop
endfacet
facet normal 0.0 0.0 1.0
  outer loop
    vertex 8.59445813942242 2.3028781178413262 4.409448818897638
    vertex 8.594458139422416 -2.3028781178413333 4.409448818897638
    vertex 8.89763779527559 0.0 4.409448818897638
  endloop
endfacet
facet normal -0.9914448613738104 0.13052619222005185 0.0
  outer loop
    vertex -8.594458139422418 2.302878117841329 4.409448818897638
    vertex -8.89763779527559 1.0896463645956766e-15 0.0
    vertex -8.89763779527559 1.0896463645956766e-15 4.409448818897638
  endloop
endfacet
facet normal -0.9914448613738104 0.13052619222005185 0.0
  outer loop
    vertex -8.89763779527559 1.0896463645956766e-15 0.0
    vertex -8.594458139422418 2.302878117841329 4.409448818897638
    vertex -8.594458139422418 2.302878117841329 0.0
  endloop
endfacet
facet normal -0.9238795325112867 0.38268343236509017 0.0
  outer loop
    vertex -7.705580364381224 4.448818897637798 4.409448818897638
    vertex -8.594458139422418 2.302878117841329 0.0
    vertex -8.594458139422418 2.302878117841329 4.409448818897638
  endloop
endfacet
facet normal -0.9238795325112867 0.38268343236509017 0.0
  outer loop
    vertex -8.594458139422418 2.302878117841329 0.0
    vertex -7.705580364381224 4.448818897637798 4.409448818897638
    vertex -7.705580364381224 4.448818897637798 0.0
  endloop
endfacet
facet normal -0.793353340291235 0.6087614290087208 0.0
  outer loop
    vertex -6.291580021581091 6.291580021581093 4.409448818897638
    vertex -7.705580364381224 4.448818897637798 0.0
    vertex -7.705580364381224 4.448818897637798 4.409448818897638
  endloop
endfacet
facet normal -0.793353340291235 0.6087614290087208 0.0
  outer loop
    vertex -7.705580364381224 4.448818897637798 0.0
    vertex -6.291580021581091 6.291580021581093 4.409448818897638
    vertex -6.291580021581091 6.291580021581093 0.0
  endloop
endfacet
facet normal -0.6087614290087208 0.7933533402912352 0.0
  outer loop
    vertex -6.291580021581091 6.291580021581093 4.409448818897638
    vertex -4.448818897637794 7.705580364381228 0.0
    vertex -6.291580021581091 6.291580021581093 0.0
  endloop
endfacet
facet normal -0.6087614290087208 0.7933533402912352 0.0
  outer loop
    vertex -4.448818897637794 7.705580364381228 0.0
    vertex -6.291580021581091 6.291580021581093 4.409448818897638
    vertex -4.448818897637794 7.705580364381228 4.409448818897638
  endloop
endfacet
facet normal -0.38268343236508956 0.9238795325112868 0.0
  outer loop
    vertex -4.448818897637794 7.705580364381228 4.409448818897638
    vertex -2.3028781178413253 8.59445813942242 0.0
    vertex -4.448818897637794 7.705580364381228 0.0
  endloop
endfacet
facet normal -0.38268343236508956 0.9238795325112868 0.0
  outer loop
    vertex -2.3028781178413253 8.59445813942242 0.0
    vertex -4.448818897637794 7.705580364381228 4.409448818897638
    vertex -2.3028781178413253 8.59445813942242 4.409448818897638
  endloop
endfacet
facet normal -0.13052619222005124 0.9914448613738105 0.0
  outer loop
    vertex -2.3028781178413253 8.59445813942242 4.409448818897638
    vertex 5.448231822978383e-16 8.89763779527559 0.0
    vertex -2.3028781178413253 8.59445813942242 0.0
  endloop
endfacet
facet normal -0.13052619222005124 0.9914448613738105 0.0
  outer loop
    vertex 5.448231822978383e-16 8.89763779527559 0.0
    vertex -2.3028781178413253 8.59445813942242 4.409448818897638
    vertex 5.448231822978383e-16 8.89763779527559 4.409448818897638
  endloop
endfacet
facet normal 0.13052619222005185 0.9914448613738104 0.0
  outer loop
    vertex 5.448231822978383e-16 8.89763779527559 4.409448818897638
    vertex 2.3028781178413285 8.594458139422418 0.0
    vertex 5.448231822978383e-16 8.89763779527559 0.0
  endloop
endfacet
facet normal 0.13052619222005185 0.9914448613738104 0.0
  outer loop
    vertex 2.3028781178413285 8.594458139422418 0.0
    vertex 5.448231822978383e-16 8.89763779527559 4.409448818897638
    vertex 2.3028781178413285 8.594458139422418 4.409448818897638
  endloop
endfacet
facet normal 0.38268343236508995 0.9238795325112867 0.0
  outer loop
    vertex 2.3028781178413285 8.594458139422418 4.409448818897638
    vertex 4.448818897637796 7.705580364381225 0.0
    vertex 2.3028781178413285 8.594458139422418 0.0
  endloop
endfacet
facet normal 0.38268343236508995 0.9238795325112867 0.0
  outer loop
    vertex 4.448818897637796 7.705580364381225 0.0
    vertex 2.3028781178413285 8.594458139422418 4.409448818897638
    vertex 4.448818897637796 7.705580364381225 4.409448818897638
  endloop
endfacet
facet normal 0.6087614290087208 0.7933533402912352 0.0
  outer loop
    vertex 4.448818897637796 7.705580364381225 4.409448818897638
    vertex 6.291580021581093 6.291580021581091 0.0
    vertex 4.448818897637796 7.705580364381225 0.0
  endloop
endfacet
facet normal 0.6087614290087208 0.7933533402912352 0.0
  outer loop
    vertex 6.291580021581093 6.291580021581091 0.0
    vertex 4.448818897637796 7.705580364381225 4.409448818897638
    vertex 6.291580021581093 6.291580021581091 4.409448818897638
  endloop
endfacet
facet normal 0.7933533402912352 0.6087614290087208 0.0
  outer loop
    vertex 6.291580021581093 6.291580021581091 0.0
    vertex 7.705580364381227 4.4488188976377945 4.409448818897638
    vertex 7.705580364381227 4.4488188976377945 0.0
  endloop
endfacet
facet normal 0.7933533402912352 0.6087614290087208 0.0
  outer loop
    vertex 7.705580364381227 4.4488188976377945 4.409448818897638
    vertex 6.291580021581093 6.291580021581091 0.0
    vertex 6.291580021581093 6.291580021581091 4.409448818897638
  endloop
endfacet
facet normal 0.9238795325112867 0.3826834323650899 0.0
  outer loop
    vertex 7.705580364381227 4.4488188976377945 0.0
    vertex 8.59445813942242 2.3028781178413262 4.409448818897638
    vertex 8.59445813942242 2.3028781178413262 0.0
  endloop
endfacet
facet normal 0.9238795325112867 0.3826834323650899 0.0
  outer loop
    vertex 8.59445813942242 2.3028781178413262 4.409448818897638
    vertex 7.705580364381227 4.4488188976377945 0.0
    vertex 7.705580364381227 4.4488188976377945 4.409448818897638
  endloop
endfacet
facet normal 0.9914448613738106 0.1305261922200512 0.0
  outer loop
    vertex 8.59445813942242 2.3028781178413262 0.0
    vertex 8.89763779527559 0.0 4.409448818897638
    vertex 8.89763779527559 0.0 0.0
  endloop
endfacet
facet normal 0.9914448613738106 0.1305261922200512 0.0
  outer loop
    vertex 8.89763779527559 0.0 4.409448818897638
    vertex 8.59445813942242 2.3028781178413262 0.0
    vertex 8.59445813942242 2.3028781178413262 4.409448818897638
  endloop
endfacet
facet normal 0.9914448613738105 -0.13052619222005232 0.0
  outer loop
    vertex 8.89763779527559 0.0 0.0
    vertex 8.594458139422416 -2.3028781178413333 4.409448818897638
    vertex 8.594458139422416 -2.3028781178413333 0.0
  endloop
endfacet
facet normal 0.9914448613738105 -0.13052619222005232 0.0
  outer loop
    vertex 8.594458139422416 -2.3028781178413333 4.409448818897638
    vertex 8.89763779527559 0.0 0.0
    vertex 8.89763779527559 0.0 4.409448818897638
  endloop
endfacet
facet normal 0.9238795325112866 -0.38268343236509034 0.0
  outer loop
    vertex 8.594458139422416 -2.3028781178413333 0.0
    vertex 7.705580364381223 -4.448818897637799 4.409448818897638
    vertex 7.705580364381223 -4.448818897637799 0.0
  endloop
endfacet
facet normal 0.9238795325112866 -0.38268343236509034 0.0
  outer loop
    vertex 7.705580364381223 -4.448818897637799 4.409448818897638
    vertex 8.594458139422416 -2.3028781178413333 0.0
    vertex 8.594458139422416 -2.3028781178413333 4.409448818897638
  endloop
endfacet
facet normal 0.7933533402912352 -0.6087614290087205 0.0
  outer loop
    vertex 7.705580364381223 -4.448818897637799 0.0
    vertex 6.291580021581091 -6.291580021581094 4.409448818897638
    vertex 6.291580021581091 -6.291580021581094 0.0
  endloop
endfacet
facet normal 0.7933533402912352 -0.6087614290087205 0.0
  outer loop
    vertex 6.291580021581091 -6.291580021581094 4.409448818897638
    vertex 7.705580364381223 -4.448818897637799 0.0
    vertex 7.705580364381223 -4.448818897637799 4.409448818897638
  endloop
endfacet
facet normal 0.6087614290087201 -0.7933533402912357 0.0
  outer loop
    vertex 6.291580021581091 -6.291580021581094 4.409448818897638
    vertex 4.448818897637789 -7.7055803643812295 0.0
    vertex 6.291580021581091 -6.291580021581094 0.0
  endloop
endfacet
facet normal 0.6087614290087201 -0.7933533402912357 0.0
  outer loop
    vertex 4.448818897637789 -7.7055803643812295 0.0
    vertex 6.291580021581091 -6.291580021581094 4.409448818897638
    vertex 4.448818897637789 -7.7055803643812295 4.409448818897638
  endloop
endfacet
facet normal 0.3826834323650891 -0.9238795325112871 0.0
  outer loop
    vertex 4.448818897637789 -7.7055803643812295 4.409448818897638
    vertex 2.3028781178413222 -8.59445813942242 0.0
    vertex 4.448818897637789 -7.7055803643812295 0.0
  endloop
endfacet
facet normal 0.3826834323650891 -0.9238795325112871 0.0
  outer loop
    vertex 2.3028781178413222 -8.59445813942242 0.0
    vertex 4.448818897637789 -7.7055803643812295 4.409448818897638
    vertex 2.3028781178413222 -8.59445813942242 4.409448818897638
  endloop
endfacet
facet normal 0.13052619222005132 -0.9914448613738105 0.0
  outer loop
    vertex 2.3028781178413222 -8.59445813942242 4.409448818897638
    vertex -1.6344695468935147e-15 -8.89763779527559 0.0
    vertex 2.3028781178413222 -8.59445813942242 0.0
  endloop
endfacet
facet normal 0.13052619222005132 -0.9914448613738105 0.0
  outer loop
    vertex -1.6344695468935147e-15 -8.89763779527559 0.0
    vertex 2.3028781178413222 -8.59445813942242 4.409448818897638
    vertex -1.6344695468935147e-15 -8.89763779527559 4.409448818897638
  endloop
endfacet
facet normal -0.13052619222005243 -0.9914448613738104 -0.0
  outer loop
    vertex -1.6344695468935147e-15 -8.89763779527559 4.409448818897638
    vertex -2.302878117841333 -8.594458139422416 0.0
    vertex -1.6344695468935147e-15 -8.89763779527559 0.0
  endloop
endfacet
facet normal -0.13052619222005243 -0.9914448613738104 -0.0
  outer loop
    vertex -2.302878117841333 -8.594458139422416 0.0
    vertex -1.6344695468935147e-15 -8.89763779527559 4.409448818897638
    vertex -2.302878117841333 -8.594458139422416 4.409448818897638
  endloop
endfacet
facet normal -0.3826834323650902 -0.9238795325112866 -0.0
  outer loop
    vertex -2.302878117841333 -8.594458139422416 4.409448818897638
    vertex -4.448818897637799 -7.705580364381223 0.0
    vertex -2.302878117841333 -8.594458139422416 0.0
  endloop
endfacet
facet normal -0.3826834323650902 -0.9238795325112866 -0.0
  outer loop
    vertex -4.448818897637799 -7.705580364381223 0.0
    vertex -2.302878117841333 -8.594458139422416 4.409448818897638
    vertex -4.448818897637799 -7.705580364381223 4.409448818897638
  endloop
endfacet
facet normal -0.608761429008721 -0.793353340291235 -0.0
  outer loop
    vertex -4.448818897637799 -7.705580364381223 4.409448818897638
    vertex -6.291580021581096 -6.291580021581089 0.0
    vertex -4.448818897637799 -7.705580364381223 0.0
  endloop
endfacet
facet normal -0.608761429008721 -0.793353340291235 -0.0
  outer loop
    vertex -6.291580021581096 -6.291580021581089 0.0
    vertex -4.448818897637799 -7.705580364381223 4.409448818897638
    vertex -6.291580021581096 -6.291580021581089 4.409448818897638
  endloop
endfacet
facet normal -0.7933533402912352 -0.6087614290087205 -0.0
  outer loop
    vertex -7.705580364381228 -4.448818897637794 4.409448818897638
    vertex -6.291580021581096 -6.291580021581089 0.0
    vertex -6.291580021581096 -6.291580021581089 4.409448818897638
  endloop
endfacet
facet normal -0.7933533402912352 -0.6087614290087205 -0.0
  outer loop
    vertex -6.291580021581096 -6.291580021581089 0.0
    vertex -7.705580364381228 -4.448818897637794 4.409448818897638
    vertex -7.705580364381228 -4.448818897637794 0.0
  endloop
endfacet
facet normal -0.923879532511287 -0.3826834323650891 -0.0
  outer loop
    vertex -8.59445813942242 -2.3028781178413227 4.409448818897638
    vertex -7.705580364381228 -4.448818897637794 0.0
    vertex -7.705580364381228 -4.448818897637794 4.409448818897638
  endloop
endfacet
facet normal -0.923879532511287 -0.3826834323650891 -0.0
  outer loop
    vertex -7.705580364381228 -4.448818897637794 0.0
    vertex -8.59445813942242 -2.3028781178413227 4.409448818897638
    vertex -8.59445813942242 -2.3028781178413227 0.0
  endloop
endfacet
facet normal -0.9914448613738104 -0.13052619222005132 -0.0
  outer loop
    vertex -8.89763779527559 1.0896463645956766e-15 4.409448818897638
    vertex -8.59445813942242 -2.3028781178413227 0.0
    vertex -8.59445813942242 -2.3028781178413227 4.409448818897638
  endloop
endfacet
facet normal -0.9914448613738104 -0.13052619222005132 -0.0
  outer loop
    vertex -8.59445813942242 -2.3028781178413227 0.0
    vertex -8.89763779527559 1.0896463645956766e-15 4.409448818897638
    vertex -8.89763779527559 1.0896463645956766e-15 0.0
  endloop
endfacet
endsolid marker
