# Blender v2.77 (sub 0) OBJ File: ''
# www.blender.org
mtllib navy.mtl
o Navybase
v -0.448519 0.000000 -1.537917
v -0.450443 0.000000 1.670854
v -0.450443 0.000000 -1.399365
v -0.420569 0.000000 1.784114
v -0.407972 0.000000 -1.670418
v -0.364762 0.000000 1.887098
v -0.332030 0.000000 -1.786321
v -0.286187 0.000000 1.973966
v -0.226738 0.000000 -1.876400
v -0.189300 0.000000 2.039793
v -0.100477 0.000000 -1.933484
v -0.079596 0.000000 2.080844
v 0.036704 0.000000 -1.953031
v 0.036704 0.000000 2.094791
v 0.173884 0.000000 -1.933484
v 0.153003 0.000000 2.080844
v 0.262708 0.000000 2.039793
v 0.300145 0.000000 -1.876400
v 0.359594 0.000000 1.973966
v 0.405437 0.000000 -1.786321
v 0.438169 0.000000 1.887098
v 0.481379 0.000000 -1.670418
v 0.493976 0.000000 1.784114
v 0.521926 0.000000 -1.537917
v 0.523850 0.000000 1.670854
v 0.523850 0.000000 -1.399365
v -0.420569 0.239269 1.784114
v -0.450443 0.239269 -1.399365
v -0.450443 0.239269 1.670854
v -0.448519 0.239269 -1.537917
v -0.407972 0.239269 -1.670418
v -0.364762 0.239269 1.887098
v -0.332030 0.239269 -1.786321
v -0.286187 0.239269 1.973966
v -0.226738 0.239269 -1.876400
v -0.189300 0.239269 2.039793
v -0.100477 0.239269 -1.933484
v -0.079596 0.239269 2.080844
v 0.036704 0.239269 -1.953031
v 0.036704 0.239269 2.094791
v 0.173884 0.239269 -1.933484
v 0.153003 0.239269 2.080844
v 0.262708 0.239269 2.039793
v 0.300145 0.239269 -1.876400
v 0.359594 0.239269 1.973966
v 0.405437 0.239269 -1.786321
v 0.438169 0.239269 1.887098
v 0.481379 0.239269 -1.670418
v 0.493976 0.239269 1.784114
v 0.521926 0.239269 -1.537917
v 0.523850 0.239269 1.670854
v 0.523850 0.239269 -1.399365
vt 0.6993 0.1754
vt 0.5885 0.1745
vt 0.6993 0.1735
vt 0.0163 0.9646
vt 0.4553 0.9723
vt 0.0007 0.9723
vt 0.0007 0.9526
vt 0.5171 0.9434
vt 0.5475 0.9526
vt 0.0195 0.8976
vt 0.6451 0.9085
vt 0.0007 0.9085
vt 0.0007 0.8401
vt 0.6780 0.8259
vt 0.7002 0.8401
vt 0.0174 0.7779
vt 0.7168 0.7926
vt 0.0007 0.7926
vt 0.0007 0.6228
vt 0.7165 0.6030
vt 0.7339 0.6228
vt 0.0134 0.6666
vt 0.7464 0.6849
vt 0.0007 0.6849
vt 0.0007 0.3721
vt 0.7460 0.3483
vt 0.7574 0.3721
vt 0.0086 0.4928
vt 0.7651 0.5136
vt 0.0007 0.5136
vt 0.0007 0.2691
vt 0.7646 0.2431
vt 0.7691 0.2691
vt 0.0034 0.4223
vt 0.7714 0.4444
vt 0.0007 0.4444
vt 0.0007 0.1880
vt 0.7714 0.1880
vt 0.7677 0.2142
vt 0.0007 0.4459
vt 0.7682 0.4459
vt 0.0041 0.4679
vt 0.0007 0.5150
vt 0.7651 0.5150
vt 0.0086 0.5359
vt 0.0007 0.2979
vt 0.7574 0.2979
vt 0.7460 0.3217
vt 0.0007 0.6863
vt 0.7464 0.6863
vt 0.0134 0.7046
vt 0.0007 0.5818
vt 0.7339 0.5818
vt 0.7165 0.6016
vt 0.0007 0.7617
vt 0.7168 0.7617
vt 0.0174 0.7765
vt 0.0007 0.8102
vt 0.7002 0.8102
vt 0.6780 0.8245
vt 0.0007 0.8852
vt 0.6451 0.8852
vt 0.0215 0.8962
vt 0.0007 0.9328
vt 0.5475 0.9328
vt 0.5265 0.9420
vt 0.0007 0.9737
vt 0.4553 0.9737
vt 0.0308 0.9813
vt 0.5885 0.1668
vt 0.6993 0.1668
vt 0.5885 0.1687
vt 0.0007 0.9918
vt 0.4452 0.9918
vt 0.0302 0.9993
vt 0.7314 0.1654
vt 0.5885 0.1629
vt 0.7377 0.1629
vt 0.5265 0.9632
vt 0.0007 0.9540
vt 0.5475 0.9540
vt 0.6451 0.8729
vt 0.0215 0.8838
vt 0.0007 0.8729
vt 0.6780 0.8558
vt 0.0007 0.8416
vt 0.7002 0.8416
vt 0.7168 0.7455
vt 0.0174 0.7603
vt 0.0007 0.7455
vt 0.7165 0.6652
vt 0.0007 0.6454
vt 0.7339 0.6454
vt 0.7464 0.7061
vt 0.0134 0.7244
vt 0.0007 0.7061
vt 0.7460 0.3973
vt 0.0007 0.3735
vt 0.7574 0.3735
vt 0.7651 0.5373
vt 0.0086 0.5581
vt 0.0007 0.5373
vt 0.7646 0.2965
vt 0.0007 0.2705
vt 0.7691 0.2705
vt 0.7714 0.3987
vt 0.0034 0.4209
vt 0.0007 0.3987
vt 0.7714 0.2417
vt 0.0007 0.2417
vt 0.7677 0.2156
vt 0.7682 0.4913
vt 0.0007 0.4913
vt 0.0041 0.4693
vt 0.7651 0.5804
vt 0.0007 0.5804
vt 0.0086 0.5595
vt 0.7574 0.3469
vt 0.0007 0.3469
vt 0.7460 0.3231
vt 0.7464 0.7441
vt 0.0007 0.7441
vt 0.0134 0.7258
vt 0.7339 0.6440
vt 0.0007 0.6440
vt 0.7165 0.6242
vt 0.7168 0.8088
vt 0.0007 0.8088
vt 0.0174 0.7940
vt 0.7002 0.8715
vt 0.0007 0.8715
vt 0.6780 0.8572
vt 0.6451 0.9208
vt 0.0007 0.9208
vt 0.0195 0.9099
vt 0.5475 0.9314
vt 0.0007 0.9314
vt 0.5171 0.9222
vt 0.4553 0.9904
vt 0.0007 0.9904
vt 0.0163 0.9827
vt 0.6993 0.1721
vt 0.5885 0.1721
vt 0.6993 0.1701
vt 0.5871 0.0461
vt 0.0007 0.0461
vt 0.0042 0.0007
vt 0.0007 0.0475
vt 0.5871 0.0475
vt 0.5835 0.0930
vt 0.7482 0.0463
vt 0.7745 0.0007
vt 0.7745 0.0463
vt 0.6356 0.0548
vt 0.6356 0.1074
vt 0.6127 0.0680
vt 0.7517 0.1544
vt 0.7781 0.1088
vt 0.7781 0.1544
vt 0.8023 0.0007
vt 0.7760 0.0463
vt 0.7760 0.0007
vt 0.6370 0.0932
vt 0.6634 0.0477
vt 0.6634 0.0932
vt 0.6912 0.0007
vt 0.6648 0.0463
vt 0.6648 0.0007
vt 0.7467 0.0463
vt 0.7204 0.0007
vt 0.7467 0.0007
vt 0.6356 0.0007
vt 0.6356 0.0534
vt 0.6127 0.0401
vt 0.7745 0.0932
vt 0.7482 0.0477
vt 0.7745 0.0477
vt 0.6683 0.1088
vt 0.6947 0.1544
vt 0.6683 0.1544
vt 0.6391 0.1544
vt 0.6127 0.1088
vt 0.6391 0.1088
vt 0.6405 0.1088
vt 0.6669 0.1544
vt 0.6405 0.1544
vt 0.6634 0.0463
vt 0.6370 0.0007
vt 0.6634 0.0007
vt 0.6648 0.0477
vt 0.6912 0.0932
vt 0.6648 0.0932
vt 0.5885 0.0534
vt 0.5885 0.0007
vt 0.6113 0.0139
vt 0.7239 0.1088
vt 0.7503 0.1544
vt 0.7239 0.1544
vt 0.7467 0.0932
vt 0.7204 0.0477
vt 0.7467 0.0477
vt 0.6113 0.0548
vt 0.6113 0.1074
vt 0.5885 0.0942
vt 0.7189 0.0007
vt 0.6926 0.0463
vt 0.6926 0.0007
vt 0.6926 0.0932
vt 0.7189 0.0477
vt 0.7189 0.0932
vt 0.8023 0.0477
vt 0.7760 0.0932
vt 0.7760 0.0477
vt 0.8037 0.0463
vt 0.8301 0.0007
vt 0.8301 0.0463
vt 0.6113 0.1088
vt 0.6113 0.1615
vt 0.5885 0.1220
vt 0.6961 0.1544
vt 0.7225 0.1088
vt 0.7225 0.1544
vt 0.5871 0.1398
vt 0.0007 0.1398
vt 0.0042 0.0944
vt 0.0007 0.1412
vt 0.5871 0.1412
vt 0.5835 0.1866
vt 0.9250 0.0528
vt 0.9027 0.0984
vt 0.9027 0.0528
vt 0.7729 0.3551
vt 0.7952 0.3095
vt 0.7952 0.3551
vt 0.8753 0.0007
vt 0.8530 0.0463
vt 0.8530 0.0007
vt 0.7795 0.2065
vt 0.8018 0.1610
vt 0.8018 0.2065
vt 0.8189 0.2625
vt 0.7966 0.3081
vt 0.7966 0.2625
vt 0.8553 0.1454
vt 0.8776 0.0998
vt 0.8776 0.1454
vt 0.9013 0.0984
vt 0.8790 0.0528
vt 0.9013 0.0528
vt 0.9241 0.0007
vt 0.9464 0.0463
vt 0.9241 0.0463
vt 0.8990 0.0463
vt 0.8767 0.0007
vt 0.8990 0.0007
vt 0.7729 0.2156
vt 0.7952 0.2611
vt 0.7729 0.2611
vt 0.8315 0.0514
vt 0.8315 0.0007
vt 0.8516 0.0105
vt 0.8238 0.0477
vt 0.8238 0.0984
vt 0.8037 0.0886
vt 0.7795 0.1595
vt 0.7795 0.1088
vt 0.7995 0.1186
vt 0.8238 0.0998
vt 0.8238 0.1505
vt 0.8037 0.1407
vt 0.8776 0.0984
vt 0.8553 0.0528
vt 0.8776 0.0528
vt 0.8315 0.0528
vt 0.8538 0.0984
vt 0.8315 0.0984
vt 0.8735 0.1975
vt 0.8512 0.1519
vt 0.8735 0.1519
vt 0.8275 0.1989
vt 0.8498 0.2445
vt 0.8275 0.2445
vt 0.8315 0.1454
vt 0.8538 0.0998
vt 0.8538 0.1454
vt 0.8260 0.1519
vt 0.8037 0.1975
vt 0.8037 0.1519
vt 0.9004 0.0463
vt 0.9227 0.0007
vt 0.9227 0.0463
vt 0.7952 0.2625
vt 0.7729 0.3081
vt 0.7729 0.2625
vt 0.8037 0.2445
vt 0.8260 0.1989
vt 0.8260 0.2445
vt 0.8498 0.1519
vt 0.8275 0.1975
vt 0.8275 0.1519
vn 0.0000 -1.0000 0.0000
vn 0.0000 1.0000 0.0000
vn -1.0000 0.0000 0.0000
vn -0.9999 0.0000 -0.0139
vn -0.9562 0.0000 -0.2926
vn -0.8364 0.0000 -0.5481
vn -0.6501 0.0000 -0.7599
vn -0.4120 0.0000 -0.9112
vn -0.1411 0.0000 -0.9900
vn 0.1411 0.0000 -0.9900
vn 0.4120 0.0000 -0.9112
vn 0.6501 0.0000 -0.7599
vn 0.8364 0.0000 -0.5481
vn 0.9562 0.0000 -0.2926
vn 0.9999 0.0000 -0.0139
vn 1.0000 0.0000 0.0000
vn 0.9669 0.0000 0.2550
vn 0.8792 0.0000 0.4764
vn 0.7416 0.0000 0.6708
vn 0.5620 0.0000 0.8272
vn 0.3505 0.0000 0.9366
vn 0.1191 0.0000 0.9929
vn -0.1191 0.0000 0.9929
vn -0.3505 0.0000 0.9366
vn -0.5620 0.0000 0.8272
vn -0.7416 0.0000 0.6708
vn -0.8792 0.0000 0.4764
vn -0.9669 0.0000 0.2550
usemtl None
s off
f 1/1/1 2/2/1 3/3/1
f 2/4/1 1/5/1 4/6/1
f 4/7/1 1/8/1 5/9/1
f 4/10/1 5/11/1 6/12/1
f 6/13/1 5/14/1 7/15/1
f 6/16/1 7/17/1 8/18/1
f 8/19/1 7/20/1 9/21/1
f 8/22/1 9/23/1 10/24/1
f 10/25/1 9/26/1 11/27/1
f 10/28/1 11/29/1 12/30/1
f 12/31/1 11/32/1 13/33/1
f 12/34/1 13/35/1 14/36/1
f 14/37/1 13/38/1 15/39/1
f 14/40/1 15/41/1 16/42/1
f 16/43/1 15/44/1 17/45/1
f 17/46/1 15/47/1 18/48/1
f 17/49/1 18/50/1 19/51/1
f 19/52/1 18/53/1 20/54/1
f 19/55/1 20/56/1 21/57/1
f 21/58/1 20/59/1 22/60/1
f 21/61/1 22/62/1 23/63/1
f 23/64/1 22/65/1 24/66/1
f 23/67/1 24/68/1 25/69/1
f 25/70/1 24/71/1 26/72/1
f 27/73/2 28/74/2 29/75/2
f 28/76/2 27/77/2 30/78/2
f 30/79/2 27/80/2 31/81/2
f 31/82/2 27/83/2 32/84/2
f 31/85/2 32/86/2 33/87/2
f 33/88/2 32/89/2 34/90/2
f 33/91/2 34/92/2 35/93/2
f 35/94/2 34/95/2 36/96/2
f 35/97/2 36/98/2 37/99/2
f 37/100/2 36/101/2 38/102/2
f 37/103/2 38/104/2 39/105/2
f 39/106/2 38/107/2 40/108/2
f 39/109/2 40/110/2 41/111/2
f 41/112/2 40/113/2 42/114/2
f 41/115/2 42/116/2 43/117/2
f 41/118/2 43/119/2 44/120/2
f 44/121/2 43/122/2 45/123/2
f 44/124/2 45/125/2 46/126/2
f 46/127/2 45/128/2 47/129/2
f 46/130/2 47/131/2 48/132/2
f 48/133/2 47/134/2 49/135/2
f 48/136/2 49/137/2 50/138/2
f 50/139/2 49/140/2 51/141/2
f 50/142/2 51/143/2 52/144/2
f 28/145/3 2/146/3 29/147/3
f 2/148/3 28/149/3 3/150/3
f 30/151/4 3/152/4 28/153/4
f 3/154/4 30/155/4 1/156/4
f 31/157/5 1/158/5 30/159/5
f 1/160/5 31/161/5 5/162/5
f 33/163/6 5/164/6 31/165/6
f 5/166/6 33/167/6 7/168/6
f 33/169/7 9/170/7 7/171/7
f 9/172/7 33/173/7 35/174/7
f 35/175/8 11/176/8 9/177/8
f 11/178/8 35/179/8 37/180/8
f 37/181/9 13/182/9 11/183/9
f 13/184/9 37/185/9 39/186/9
f 39/187/10 15/188/10 13/189/10
f 15/190/10 39/191/10 41/192/10
f 41/193/11 18/194/11 15/195/11
f 18/196/11 41/197/11 44/198/11
f 44/199/12 20/200/12 18/201/12
f 20/202/12 44/203/12 46/204/12
f 20/205/13 48/206/13 22/207/13
f 48/208/13 20/209/13 46/210/13
f 22/211/14 50/212/14 24/213/14
f 50/214/14 22/215/14 48/216/14
f 24/217/15 52/218/15 26/219/15
f 52/220/15 24/221/15 50/222/15
f 26/223/16 51/224/16 25/225/16
f 51/226/16 26/227/16 52/228/16
f 25/229/17 49/230/17 23/231/17
f 49/232/17 25/233/17 51/234/17
f 23/235/18 47/236/18 21/237/18
f 47/238/18 23/239/18 49/240/18
f 21/241/19 45/242/19 19/243/19
f 45/244/19 21/245/19 47/246/19
f 45/247/20 17/248/20 19/249/20
f 17/250/20 45/251/20 43/252/20
f 43/253/21 16/254/21 17/255/21
f 16/256/21 43/257/21 42/258/21
f 42/259/22 14/260/22 16/261/22
f 14/262/22 42/263/22 40/264/22
f 40/265/23 12/266/23 14/267/23
f 12/268/23 40/269/23 38/270/23
f 38/271/24 10/272/24 12/273/24
f 10/274/24 38/275/24 36/276/24
f 36/277/25 8/278/25 10/279/25
f 8/280/25 36/281/25 34/282/25
f 32/283/26 8/284/26 34/285/26
f 8/286/26 32/287/26 6/288/26
f 27/289/27 6/290/27 32/291/27
f 6/292/27 27/293/27 4/294/27
f 29/295/28 4/296/28 27/297/28
f 4/298/28 29/299/28 2/300/28
