solid navybase
facet normal 0.0 0.0 -1.0
  outer loop
    vertex -51034.32033269189 174990.6508282118 0.0
    vertex -51253.26774477902 -190116.7596228758 0.0
    vertex -51253.26774477902 159225.54037712418 0.0
  endloop
endfacet
facet normal 0.0 0.0 -1.0
  outer loop
    vertex -51253.26774477902 -190116.7596228758 0.0
    vertex -51034.32033269189 174990.6508282118 0.0
    vertex -47854.107547454914 -203003.9060402919 0.0
  endloop
endfacet
facet normal 0.0 0.0 -1.0
  outer loop
    vertex -47854.107547454914 -203003.9060402919 0.0
    vertex -51034.32033269189 174990.6508282118 0.0
    vertex -46420.74962610941 190067.1759862054 0.0
  endloop
endfacet
facet normal 0.0 0.0 -1.0
  outer loop
    vertex -47854.107547454914 -203003.9060402919 0.0
    vertex -46420.74962610941 190067.1759862054 0.0
    vertex -41504.17393890742 -214721.8911912482 0.0
  endloop
endfacet
facet normal 0.0 0.0 -1.0
  outer loop
    vertex -41504.17393890742 -214721.8911912482 0.0
    vertex -46420.74962610941 190067.1759862054 0.0
    vertex -37779.78409832467 203255.06286211865 0.0
  endloop
endfacet
facet normal 0.0 0.0 -1.0
  outer loop
    vertex -41504.17393890742 -214721.8911912482 0.0
    vertex -37779.78409832467 203255.06286211865 0.0
    vertex -32563.58752031204 -224606.1588587399 0.0
  endloop
endfacet
facet normal 0.0 0.0 -1.0
  outer loop
    vertex -32563.58752031204 -224606.1588587399 0.0
    vertex -37779.78409832467 203255.06286211865 0.0
    vertex -25799.222588969336 213504.58926214342 0.0
  endloop
endfacet
facet normal 0.0 0.0 -1.0
  outer loop
    vertex -32563.58752031204 -224606.1588587399 0.0
    vertex -25799.222588969336 213504.58926214342 0.0
    vertex -21539.3912868258 -232096.14752605982 0.0
  endloop
endfacet
facet normal 0.0 0.0 -1.0
  outer loop
    vertex -21539.3912868258 -232096.14752605982 0.0
    vertex -25799.222588969336 213504.58926214342 0.0
    vertex -11432.687268826874 219999.9189996817 0.0
  endloop
endfacet
facet normal 0.0 0.0 -1.0
  outer loop
    vertex -21539.3912868258 -232096.14752605982 0.0
    vertex -11432.687268826874 219999.9189996817 0.0
    vertex -9056.794952411043 -236767.08122105576 0.0
  endloop
endfacet
facet normal 0.0 0.0 -1.0
  outer loop
    vertex -9056.794952411043 -236767.08122105576 0.0
    vertex -11432.687268826874 219999.9189996817 0.0
    vertex 4176.28225522096 222224.04037712418 0.0
  endloop
endfacet
facet normal 0.0 0.0 -1.0
  outer loop
    vertex -9056.794952411043 -236767.08122105576 0.0
    vertex 4176.28225522096 222224.04037712418 0.0
    vertex 4176.282255220985 -238354.0596228758 0.0
  endloop
endfacet
facet normal 0.0 0.0 -1.0
  outer loop
    vertex 4176.282255220985 -238354.0596228758 0.0
    vertex 4176.28225522096 222224.04037712418 0.0
    vertex 19785.251779268798 219999.91899968171 0.0
  endloop
endfacet
facet normal 0.0 0.0 -1.0
  outer loop
    vertex 4176.282255220985 -238354.0596228758 0.0
    vertex 19785.251779268798 219999.91899968171 0.0
    vertex 17409.359462853008 -236767.08122105576 0.0
  endloop
endfacet
facet normal 0.0 0.0 -1.0
  outer loop
    vertex 17409.359462853008 -236767.08122105576 0.0
    vertex 19785.251779268798 219999.91899968171 0.0
    vertex 29891.955797267765 -232096.1475260598 0.0
  endloop
endfacet
facet normal 0.0 0.0 -1.0
  outer loop
    vertex 29891.955797267765 -232096.1475260598 0.0
    vertex 19785.251779268798 219999.91899968171 0.0
    vertex 34151.787099411275 213504.58926214342 0.0
  endloop
endfacet
facet normal 0.0 0.0 -1.0
  outer loop
    vertex 29891.955797267765 -232096.1475260598 0.0
    vertex 34151.787099411275 213504.58926214342 0.0
    vertex 40916.152030754 -224606.1588587399 0.0
  endloop
endfacet
facet normal 0.0 0.0 -1.0
  outer loop
    vertex 40916.152030754 -224606.1588587399 0.0
    vertex 34151.787099411275 213504.58926214342 0.0
    vertex 46132.34860876662 203255.06286211865 0.0
  endloop
endfacet
facet normal 0.0 0.0 -1.0
  outer loop
    vertex 40916.152030754 -224606.1588587399 0.0
    vertex 46132.34860876662 203255.06286211865 0.0
    vertex 49856.73844934939 -214721.8911912482 0.0
  endloop
endfacet
facet normal 0.0 0.0 -1.0
  outer loop
    vertex 49856.73844934939 -214721.8911912482 0.0
    vertex 46132.34860876662 203255.06286211865 0.0
    vertex 54773.314136551366 190067.1759862054 0.0
  endloop
endfacet
facet normal 0.0 0.0 -1.0
  outer loop
    vertex 49856.73844934939 -214721.8911912482 0.0
    vertex 54773.314136551366 190067.1759862054 0.0
    vertex 56206.672057896874 -203003.9060402919 0.0
  endloop
endfacet
facet normal 0.0 0.0 -1.0
  outer loop
    vertex 56206.672057896874 -203003.9060402919 0.0
    vertex 54773.314136551366 190067.1759862054 0.0
    vertex 59386.884843133856 174990.65082821174 0.0
  endloop
endfacet
facet normal 0.0 0.0 -1.0
  outer loop
    vertex 56206.672057896874 -203003.9060402919 0.0
    vertex 59386.884843133856 174990.65082821174 0.0
    vertex 59605.83225522098 -190116.7596228758 0.0
  endloop
endfacet
facet normal 0.0 0.0 -1.0
  outer loop
    vertex 59605.83225522098 -190116.7596228758 0.0
    vertex 59386.884843133856 174990.65082821174 0.0
    vertex 59605.83225522098 159225.54037712418 0.0
  endloop
endfacet
facet normal 0.0 0.0 1.0
  outer loop
    vertex -47854.107547454914 -203003.9060402919 27225.0
    vertex -51253.26774477902 159225.54037712418 27225.0
    vertex -51253.26774477902 -190116.7596228758 27225.0
  endloop
endfacet
facet normal 0.0 0.0 1.0
  outer loop
    vertex -51253.26774477902 159225.54037712418 27225.0
    vertex -47854.107547454914 -203003.9060402919 27225.0
    vertex -51034.32033269189 174990.6508282118 27225.0
  endloop
endfacet
facet normal 0.0 0.0 1.0
  outer loop
    vertex -51034.32033269189 174990.6508282118 27225.0
    vertex -47854.107547454914 -203003.9060402919 27225.0
    vertex -46420.74962610941 190067.1759862054 27225.0
  endloop
endfacet
facet normal 0.0 0.0 1.0
  outer loop
    vertex -46420.74962610941 190067.1759862054 27225.0
    vertex -47854.107547454914 -203003.9060402919 27225.0
    vertex -41504.17393890742 -214721.8911912482 27225.0
  endloop
endfacet
facet normal 0.0 0.0 1.0
  outer loop
    vertex -46420.74962610941 190067.1759862054 27225.0
    vertex -41504.17393890742 -214721.8911912482 27225.0
    vertex -37779.78409832467 203255.06286211865 27225.0
  endloop
endfacet
facet normal 0.0 0.0 1.0
  outer loop
    vertex -37779.78409832467 203255.06286211865 27225.0
    vertex -41504.17393890742 -214721.8911912482 27225.0
    vertex -32563.58752031204 -224606.1588587399 27225.0
  endloop
endfacet
facet normal 0.0 0.0 1.0
  outer loop
    vertex -37779.78409832467 203255.06286211865 27225.0
    vertex -32563.58752031204 -224606.1588587399 27225.0
    vertex -25799.222588969336 213504.58926214342 27225.0
  endloop
endfacet
facet normal 0.0 0.0 1.0
  outer loop
    vertex -25799.222588969336 213504.58926214342 27225.0
    vertex -32563.58752031204 -224606.1588587399 27225.0
    vertex -21539.3912868258 -232096.14752605982 27225.0
  endloop
endfacet
facet normal 0.0 0.0 1.0
  outer loop
    vertex -25799.222588969336 213504.58926214342 27225.0
    vertex -21539.3912868258 -232096.14752605982 27225.0
    vertex -11432.687268826874 219999.9189996817 27225.0
  endloop
endfacet
facet normal 0.0 0.0 1.0
  outer loop
    vertex -11432.687268826874 219999.9189996817 27225.0
    vertex -21539.3912868258 -232096.14752605982 27225.0
    vertex -9056.794952411043 -236767.08122105576 27225.0
  endloop
endfacet
facet normal 0.0 0.0 1.0
  outer loop
    vertex -11432.687268826874 219999.9189996817 27225.0
    vertex -9056.794952411043 -236767.08122105576 27225.0
    vertex 4176.28225522096 222224.04037712418 27225.0
  endloop
endfacet
facet normal 0.0 0.0 1.0
  outer loop
    vertex 4176.28225522096 222224.04037712418 27225.0
    vertex -9056.794952411043 -236767.08122105576 27225.0
    vertex 4176.282255220985 -238354.0596228758 27225.0
  endloop
endfacet
facet normal 0.0 0.0 1.0
  outer loop
    vertex 4176.28225522096 222224.04037712418 27225.0
    vertex 4176.282255220985 -238354.0596228758 27225.0
    vertex 19785.251779268798 219999.91899968171 27225.0
  endloop
endfacet
facet normal 0.0 0.0 1.0
  outer loop
    vertex 19785.251779268798 219999.91899968171 27225.0
    vertex 4176.282255220985 -238354.0596228758 27225.0
    vertex 17409.359462853008 -236767.08122105576 27225.0
  endloop
endfacet
facet normal 0.0 0.0 1.0
  outer loop
    vertex 19785.251779268798 219999.91899968171 27225.0
    vertex 17409.359462853008 -236767.08122105576 27225.0
    vertex 29891.955797267765 -232096.1475260598 27225.0
  endloop
endfacet
facet normal 0.0 0.0 1.0
  outer loop
    vertex 19785.251779268798 219999.91899968171 27225.0
    vertex 29891.955797267765 -232096.1475260598 27225.0
    vertex 34151.787099411275 213504.58926214342 27225.0
  endloop
endfacet
facet normal 0.0 0.0 1.0
  outer loop
    vertex 34151.787099411275 213504.58926214342 27225.0
    vertex 29891.955797267765 -232096.1475260598 27225.0
    vertex 40916.152030754 -224606.1588587399 27225.0
  endloop
endfacet
facet normal 0.0 0.0 1.0
  outer loop
    vertex 34151.787099411275 213504.58926214342 27225.0
    vertex 40916.152030754 -224606.1588587399 27225.0
    vertex 46132.34860876662 203255.06286211865 27225.0
  endloop
endfacet
facet normal 0.0 0.0 1.0
  outer loop
    vertex 46132.34860876662 203255.06286211865 27225.0
    vertex 40916.152030754 -224606.1588587399 27225.0
    vertex 49856.73844934939 -214721.8911912482 27225.0
  endloop
endfacet
facet normal 0.0 0.0 1.0
  outer loop
    vertex 46132.34860876662 203255.06286211865 27225.0
    vertex 49856.73844934939 -214721.8911912482 27225.0
    vertex 54773.314136551366 190067.1759862054 27225.0
  endloop
endfacet
facet normal 0.0 0.0 1.0
  outer loop
    vertex 54773.314136551366 190067.1759862054 27225.0
    vertex 49856.73844934939 -214721.8911912482 27225.0
    vertex 56206.672057896874 -203003.9060402919 27225.0
  endloop
endfacet
facet normal 0.0 0.0 1.0
  outer loop
    vertex 54773.314136551366 190067.1759862054 27225.0
    vertex 56206.672057896874 -203003.9060402919 27225.0
    vertex 59386.884843133856 174990.65082821174 27225.0
  endloop
endfacet
facet normal 0.0 0.0 1.0
  outer loop
    vertex 59386.884843133856 174990.65082821174 27225.0
    vertex 56206.672057896874 -203003.9060402919 27225.0
    vertex 59605.83225522098 -190116.7596228758 27225.0
  endloop
endfacet
facet normal 0.0 0.0 1.0
  outer loop
    vertex 59386.884843133856 174990.65082821174 27225.0
    vertex 59605.83225522098 -190116.7596228758 27225.0
    vertex 59605.83225522098 159225.54037712418 27225.0
  endloop
endfacet
facet normal -1.0 0.0 0.0
  outer loop
    vertex -51253.26774477902 159225.54037712418 27225.0
    vertex -51253.26774477902 -190116.7596228758 0.0
    vertex -51253.26774477902 -190116.7596228758 27225.0
  endloop
endfacet
facet normal -1.0 0.0 0.0
  outer loop
    vertex -51253.26774477902 -190116.7596228758 0.0
    vertex -51253.26774477902 159225.54037712418 27225.0
    vertex -51253.26774477902 159225.54037712418 0.0
  endloop
endfacet
facet normal -0.9999035743040423 0.013886759665260744 0.0
  outer loop
    vertex -51034.32033269189 174990.6508282118 27225.0
    vertex -51253.26774477902 159225.54037712418 0.0
    vertex -51253.26774477902 159225.54037712418 27225.0
  endloop
endfacet
facet normal -0.9999035743040423 0.013886759665260744 0.0
  outer loop
    vertex -51253.26774477902 159225.54037712418 0.0
    vertex -51034.32033269189 174990.6508282118 27225.0
    vertex -51034.32033269189 174990.6508282118 0.0
  endloop
endfacet
facet normal -0.9562299890212731 0.29261614462701097 0.0
  outer loop
    vertex -46420.74962610941 190067.1759862054 27225.0
    vertex -51034.32033269189 174990.6508282118 0.0
    vertex -51034.32033269189 174990.6508282118 27225.0
  endloop
endfacet
facet normal -0.9562299890212731 0.29261614462701097 0.0
  outer loop
    vertex -51034.32033269189 174990.6508282118 0.0
    vertex -46420.74962610941 190067.1759862054 27225.0
    vertex -46420.74962610941 190067.1759862054 0.0
  endloop
endfacet
facet normal -0.8364429329978698 0.5480540300352887 0.0
  outer loop
    vertex -37779.78409832467 203255.06286211865 27225.0
    vertex -46420.74962610941 190067.1759862054 0.0
    vertex -46420.74962610941 190067.1759862054 27225.0
  endloop
endfacet
facet normal -0.8364429329978698 0.5480540300352887 0.0
  outer loop
    vertex -46420.74962610941 190067.1759862054 0.0
    vertex -37779.78409832467 203255.06286211865 27225.0
    vertex -37779.78409832467 203255.06286211865 0.0
  endloop
endfacet
facet normal -0.6500771506869704 0.7598682110436716 0.0
  outer loop
    vertex -37779.78409832467 203255.06286211865 27225.0
    vertex -25799.222588969336 213504.58926214342 0.0
    vertex -37779.78409832467 203255.06286211865 0.0
  endloop
endfacet
facet normal -0.6500771506869704 0.7598682110436716 0.0
  outer loop
    vertex -25799.222588969336 213504.58926214342 0.0
    vertex -37779.78409832467 203255.06286211865 27225.0
    vertex -25799.222588969336 213504.58926214342 27225.0
  endloop
endfacet
facet normal -0.411966883517762 0.9111988185268146 0.0
  outer loop
    vertex -25799.222588969336 213504.58926214342 27225.0
    vertex -11432.687268826874 219999.9189996817 0.0
    vertex -25799.222588969336 213504.58926214342 0.0
  endloop
endfacet
facet normal -0.411966883517762 0.9111988185268146 0.0
  outer loop
    vertex -11432.687268826874 219999.9189996817 0.0
    vertex -25799.222588969336 213504.58926214342 27225.0
    vertex -11432.687268826874 219999.9189996817 27225.0
  endloop
endfacet
facet normal -0.14106510207401454 0.9900003217054264 0.0
  outer loop
    vertex -11432.687268826874 219999.9189996817 27225.0
    vertex 4176.28225522096 222224.04037712418 0.0
    vertex -11432.687268826874 219999.9189996817 0.0
  endloop
endfacet
facet normal -0.14106510207401454 0.9900003217054264 0.0
  outer loop
    vertex 4176.28225522096 222224.04037712418 0.0
    vertex -11432.687268826874 219999.9189996817 27225.0
    vertex 4176.28225522096 222224.04037712418 27225.0
  endloop
endfacet
facet normal 0.1410651020740122 0.9900003217054267 0.0
  outer loop
    vertex 4176.28225522096 222224.04037712418 27225.0
    vertex 19785.251779268798 219999.91899968171 0.0
    vertex 4176.28225522096 222224.04037712418 0.0
  endloop
endfacet
facet normal 0.1410651020740122 0.9900003217054267 0.0
  outer loop
    vertex 19785.251779268798 219999.91899968171 0.0
    vertex 4176.28225522096 222224.04037712418 27225.0
    vertex 19785.251779268798 219999.91899968171 27225.0
  endloop
endfacet
facet normal 0.41196688351776345 0.911198818526814 0.0
  outer loop
    vertex 19785.251779268798 219999.91899968171 27225.0
    vertex 34151.787099411275 213504.58926214342 0.0
    vertex 19785.251779268798 219999.91899968171 0.0
  endloop
endfacet
facet normal 0.41196688351776345 0.911198818526814 0.0
  outer loop
    vertex 34151.787099411275 213504.58926214342 0.0
    vertex 19785.251779268798 219999.91899968171 27225.0
    vertex 34151.787099411275 213504.58926214342 27225.0
  endloop
endfacet
facet normal 0.6500771506869703 0.759868211043672 0.0
  outer loop
    vertex 34151.787099411275 213504.58926214342 27225.0
    vertex 46132.34860876662 203255.06286211865 0.0
    vertex 34151.787099411275 213504.58926214342 0.0
  endloop
endfacet
facet normal 0.6500771506869703 0.759868211043672 0.0
  outer loop
    vertex 46132.34860876662 203255.06286211865 0.0
    vertex 34151.787099411275 213504.58926214342 27225.0
    vertex 46132.34860876662 203255.06286211865 27225.0
  endloop
endfacet
facet normal 0.8364429329978694 0.5480540300352892 0.0
  outer loop
    vertex 46132.34860876662 203255.06286211865 0.0
    vertex 54773.314136551366 190067.1759862054 27225.0
    vertex 54773.314136551366 190067.1759862054 0.0
  endloop
endfacet
facet normal 0.8364429329978694 0.5480540300352892 0.0
  outer loop
    vertex 54773.314136551366 190067.1759862054 27225.0
    vertex 46132.34860876662 203255.06286211865 0.0
    vertex 46132.34860876662 203255.06286211865 27225.0
  endloop
endfacet
facet normal 0.9562299890212732 0.29261614462701085 0.0
  outer loop
    vertex 54773.314136551366 190067.1759862054 0.0
    vertex 59386.884843133856 174990.65082821174 27225.0
    vertex 59386.884843133856 174990.65082821174 0.0
  endloop
endfacet
facet normal 0.9562299890212732 0.29261614462701085 0.0
  outer loop
    vertex 59386.884843133856 174990.65082821174 27225.0
    vertex 54773.314136551366 190067.1759862054 0.0
    vertex 54773.314136551366 190067.1759862054 27225.0
  endloop
endfacet
facet normal 0.9999035743040423 0.013886759665260191 0.0
  outer loop
    vertex 59386.884843133856 174990.65082821174 0.0
    vertex 59605.83225522098 159225.54037712418 27225.0
    vertex 59605.83225522098 159225.54037712418 0.0
  endloop
endfacet
facet normal 0.9999035743040423 0.013886759665260191 0.0
  outer loop
    vertex 59605.83225522098 159225.54037712418 27225.0
    vertex 59386.884843133856 174990.65082821174 0.0
    vertex 59386.884843133856 174990.65082821174 27225.0
  endloop
endfacet
facet normal 1.0 0.0 0.0
  outer loop
    vertex 59605.83225522098 159225.54037712418 0.0
    vertex 59605.83225522098 -190116.7596228758 27225.0
    vertex 59605.83225522098 -190116.7596228758 0.0
  endloop
endfacet
facet normal 1.0 0.0 0.0
  outer loop
    vertex 59605.83225522098 -190116.7596228758 27225.0
    vertex 59605.83225522098 159225.54037712418 0.0
    vertex 59605.83225522098 159225.54037712418 27225.0
  endloop
endfacet
facet normal 0.9669302382045452 -0.2550410054201124 0.0
  outer loop
    vertex 59605.83225522098 -190116.7596228758 0.0
    vertex 56206.672057896874 -203003.9060402919 27225.0
    vertex 56206.672057896874 -203003.9060402919 0.0
  endloop
endfacet
facet normal 0.9669302382045452 -0.2550410054201124 0.0
  outer loop
    vertex 56206.672057896874 -203003.9060402919 27225.0
    vertex 59605.83225522098 -190116.7596228758 0.0
    vertex 59605.83225522098 -190116.7596228758 27225.0
  endloop
endfacet
facet normal 0.8792073750306065 -0.47643928437083216 0.0
  outer loop
    vertex 56206.672057896874 -203003.9060402919 0.0
    vertex 49856.73844934939 -214721.8911912482 27225.0
    vertex 49856.73844934939 -214721.8911912482 0.0
  endloop
endfacet
facet normal 0.8792073750306065 -0.47643928437083216 0.0
  outer loop
    vertex 49856.73844934939 -214721.8911912482 27225.0
    vertex 56206.672057896874 -203003.9060402919 0.0
    vertex 56206.672057896874 -203003.9060402919 27225.0
  endloop
endfacet
facet normal 0.7416224647908878 -0.6708175010518795 0.0
  outer loop
    vertex 49856.73844934939 -214721.8911912482 0.0
    vertex 40916.152030754 -224606.1588587399 27225.0
    vertex 40916.152030754 -224606.1588587399 0.0
  endloop
endfacet
facet normal 0.7416224647908878 -0.6708175010518795 0.0
  outer loop
    vertex 40916.152030754 -224606.1588587399 27225.0
    vertex 49856.73844934939 -214721.8911912482 0.0
    vertex 49856.73844934939 -214721.8911912482 27225.0
  endloop
endfacet
facet normal 0.5619782915210402 -0.8271519811129591 0.0
  outer loop
    vertex 40916.152030754 -224606.1588587399 27225.0
    vertex 29891.955797267765 -232096.1475260598 0.0
    vertex 40916.152030754 -224606.1588587399 0.0
  endloop
endfacet
facet normal 0.5619782915210402 -0.8271519811129591 0.0
  outer loop
    vertex 29891.955797267765 -232096.1475260598 0.0
    vertex 40916.152030754 -224606.1588587399 27225.0
    vertex 29891.955797267765 -232096.1475260598 27225.0
  endloop
endfacet
facet normal 0.35046292515435257 -0.9365766055653187 0.0
  outer loop
    vertex 29891.955797267765 -232096.1475260598 27225.0
    vertex 17409.359462853008 -236767.08122105576 0.0
    vertex 29891.955797267765 -232096.1475260598 0.0
  endloop
endfacet
facet normal 0.35046292515435257 -0.9365766055653187 0.0
  outer loop
    vertex 17409.359462853008 -236767.08122105576 0.0
    vertex 29891.955797267765 -232096.1475260598 27225.0
    vertex 17409.359462853008 -236767.08122105576 27225.0
  endloop
endfacet
facet normal 0.11907193061945352 -0.992885630542892 0.0
  outer loop
    vertex 17409.359462853008 -236767.08122105576 27225.0
    vertex 4176.282255220985 -238354.0596228758 0.0
    vertex 17409.359462853008 -236767.08122105576 0.0
  endloop
endfacet
facet normal 0.11907193061945352 -0.992885630542892 0.0
  outer loop
    vertex 4176.282255220985 -238354.0596228758 0.0
    vertex 17409.359462853008 -236767.08122105576 27225.0
    vertex 4176.282255220985 -238354.0596228758 27225.0
  endloop
endfacet
facet normal -0.11907193061945352 -0.992885630542892 -0.0
  outer loop
    vertex 4176.282255220985 -238354.0596228758 27225.0
    vertex -9056.794952411043 -236767.08122105576 0.0
    vertex 4176.282255220985 -238354.0596228758 0.0
  endloop
endfacet
facet normal -0.11907193061945352 -0.992885630542892 -0.0
  outer loop
    vertex -9056.794952411043 -236767.08122105576 0.0
    vertex 4176.282255220985 -238354.0596228758 27225.0
    vertex -9056.794952411043 -236767.08122105576 27225.0
  endloop
endfacet
facet normal -0.35046292515435007 -0.9365766055653199 -0.0
  outer loop
    vertex -9056.794952411043 -236767.08122105576 27225.0
    vertex -21539.3912868258 -232096.14752605982 0.0
    vertex -9056.794952411043 -236767.08122105576 0.0
  endloop
endfacet
facet normal -0.35046292515435007 -0.9365766055653199 -0.0
  outer loop
    vertex -21539.3912868258 -232096.14752605982 0.0
    vertex -9056.794952411043 -236767.08122105576 27225.0
    vertex -21539.3912868258 -232096.14752605982 27225.0
  endloop
endfacet
facet normal -0.5619782915210417 -0.8271519811129581 -0.0
  outer loop
    vertex -21539.3912868258 -232096.14752605982 27225.0
    vertex -32563.58752031204 -224606.1588587399 0.0
    vertex -21539.3912868258 -232096.14752605982 0.0
  endloop
endfacet
facet normal -0.5619782915210417 -0.8271519811129581 -0.0
  outer loop
    vertex -32563.58752031204 -224606.1588587399 0.0
    vertex -21539.3912868258 -232096.14752605982 27225.0
    vertex -32563.58752031204 -224606.1588587399 27225.0
  endloop
endfacet
facet normal -0.7416224647908883 -0.6708175010518791 -0.0
  outer loop
    vertex -41504.17393890742 -214721.8911912482 27225.0
    vertex -32563.58752031204 -224606.1588587399 0.0
    vertex -32563.58752031204 -224606.1588587399 27225.0
  endloop
endfacet
facet normal -0.7416224647908883 -0.6708175010518791 -0.0
  outer loop
    vertex -32563.58752031204 -224606.1588587399 0.0
    vertex -41504.17393890742 -214721.8911912482 27225.0
    vertex -41504.17393890742 -214721.8911912482 0.0
  endloop
endfacet
facet normal -0.8792073750306061 -0.4764392843708326 -0.0
  outer loop
    vertex -47854.107547454914 -203003.9060402919 27225.0
    vertex -41504.17393890742 -214721.8911912482 0.0
    vertex -41504.17393890742 -214721.8911912482 27225.0
  endloop
endfacet
facet normal -0.8792073750306061 -0.4764392843708326 -0.0
  outer loop
    vertex -41504.17393890742 -214721.8911912482 0.0
    vertex -47854.107547454914 -203003.9060402919 27225.0
    vertex -47854.107547454914 -203003.9060402919 0.0
  endloop
endfacet
facet normal -0.9669302382045452 -0.2550410054201124 -0.0
  outer loop
    vertex -51253.26774477902 -190116.7596228758 27225.0
    vertex -47854.107547454914 -203003.9060402919 0.0
    vertex -47854.107547454914 -203003.9060402919 27225.0
  endloop
endfacet
facet normal -0.9669302382045452 -0.2550410054201124 -0.0
  outer loop
    vertex -47854.107547454914 -203003.9060402919 0.0
    vertex -51253.26774477902 -190116.7596228758 27225.0
    vertex -51253.26774477902 -190116.7596228758 0.0
  endloop
endfacet
endsolid navybase
