# Alias OBJ Model File
# Exported from SketchUp, (c) 2000-2012 Trimble Navigation Limited
# File units = millimeters

mtllib sanavy.mtl

g Mesh1 Model

usemtl _7
v -512533 0 1.90117e+06
vt 20178.5 -74849.1
vn 0 -1 -0
v -512533 0 -1.59226e+06
vt 20178.5 62687.2
v -510343 0 -1.74991e+06
vt 20092.3 68894
v -464207 0 -1.90067e+06
vt 18275.9 74829.6
v -377798 0 -2.03255e+06
vt 14873.9 80021.7
v -257992 0 -2.13505e+06
vt 10157.2 84056.9
v -114327 0 -2.2e+06
vt 4501.06 86614.1
v 41762.8 0 -2.22224e+06
vt -1644.21 87489.8
v 197853 0 -2.2e+06
vt -7789.47 86614.1
v 341518 0 -2.13505e+06
vt -13445.6 84056.9
v 461323 0 -2.03255e+06
vt -18162.3 80021.7
v 547733 0 -1.90067e+06
vt -21564.3 74829.6
v 593869 0 -1.74991e+06
vt -23380.7 68894
v 596058 0 -1.59226e+06
vt -23466.9 62687.2
v 596058 0 1.90117e+06
vt -23466.9 -74849.1
v 562067 0 2.03004e+06
vt -22128.6 -79922.8
v 498567 0 2.14722e+06
vt -19628.6 -84536.2
v 409162 0 2.24606e+06
vt -16108.7 -88427.6
v 298920 0 2.32096e+06
vt -11768.5 -91376.4
v 174094 0 2.36767e+06
vt -6854.08 -93215.4
v 41762.8 0 2.38354e+06
vt -1644.21 -93840.2
v -90567.9 0 2.36767e+06
vt 3565.67 -93215.4
v -215394 0 2.32096e+06
vt 8480.08 -91376.4
v -325636 0 2.24606e+06
vt 12820.3 -88427.6
v -415042 0 2.14722e+06
vt 16340.2 -84536.2
v -478541 0 2.03004e+06
vt 18840.2 -79922.8
f 1/1/1 2/2/1 3/3/1 4/4/1 5/5/1 6/6/1 7/7/1 8/8/1 9/9/1 10/10/1 11/11/1 12/12/1 13/13/1 14/14/1 15/15/1 16/16/1 17/17/1 18/18/1 19/19/1 20/20/1 21/21/1 22/22/1 23/23/1 24/24/1 25/25/1 26/26/1 

vt -62687.2 0
vn -1 0 -0
vt 74849.1 0
v -512533 272250 1.90117e+06
vt 74849.1 10718.5
v -512533 272250 -1.59226e+06
vt -62687.2 10718.5
f 2/27/2 1/28/2 27/29/2 28/30/2 

vt 67227.5 0
vn -0.96693 0 0.255041
vt 72474.7 0
vn -0.929683 0 0.368361
v -478541 272250 2.03004e+06
vt 72474.7 10718.5
vt 67227.5 10718.5
f 1/31/3 26/32/4 29/33/4 27/34/3 

vt 61292.5 0
vt 66539.7 0
vn -0.816222 0 0.577739
v -415042 272250 2.14722e+06
vt 66539.7 10718.5
vt 61292.5 10718.5
f 26/35/4 25/36/5 30/37/5 29/38/4 

vt 51732.6 0
vt 56979.8 0
vn -0.656471 0 0.754351
v -325636 272250 2.24606e+06
vt 56979.8 10718.5
vt 51732.6 10718.5
f 25/39/5 24/40/6 31/41/6 30/42/5 

vt 39090.1 0
vt 44337.3 0
vn -0.45949 0 0.888183
v -215394 272250 2.32096e+06
vt 44337.3 10718.5
vt 39090.1 10718.5
f 24/43/6 23/44/7 32/45/7 31/46/6 

vt 24081.8 0
vt 29329 0
vn -0.23645 0 0.971644
v -90567.9 272250 2.36767e+06
vt 29329 10718.5
vt 24081.8 10718.5
f 23/47/7 22/48/8 33/49/8 32/50/7 

vt 7559.04 0
vt 12806.2 0
vn 0 0 1
v 41762.8 272250 2.38354e+06
vt 12806.2 10718.5
vt 7559.04 10718.5
f 22/51/8 21/52/9 34/53/9 33/54/8 

vt -9541.22 0
vt -4294.02 0
vn 0.23645 0 0.971644
v 174094 272250 2.36767e+06
vt -4294.02 10718.5
vt -9541.22 10718.5
f 21/55/9 20/56/10 35/57/10 34/58/9 

vt -26249.2 0
vt -21002 0
vn 0.45949 0 0.888183
v 298920 272250 2.32096e+06
vt -21002 10718.5
vt -26249.2 10718.5
f 20/59/10 19/60/11 36/61/11 35/62/10 

vt -41617.2 0
vt -36370 0
vn 0.656471 0 0.754351
v 409162 272250 2.24606e+06
vt -36370 10718.5
vt -41617.2 10718.5
f 19/63/11 18/64/12 37/65/12 36/66/11 

vt -54773.9 0
vt -49526.7 0
vn 0.816222 0 0.577739
v 498567 272250 2.14722e+06
vt -49526.7 10718.5
vt -54773.9 10718.5
f 18/67/12 17/68/13 38/69/13 37/70/12 

vt -64973 0
vt -59725.8 0
vn 0.929683 0 0.368361
v 562067 272250 2.03004e+06
vt -59725.8 10718.5
vt -64973 10718.5
f 17/71/13 16/72/14 39/73/14 38/74/13 

vt -71636.1 0
vt -66388.9 0
vn 0.96693 0 0.255041
v 596058 272250 1.90117e+06
vt -66388.9 10718.5
vt -71636.1 10718.5
f 16/75/14 15/76/15 40/77/15 39/78/14 

vt -74849.1 0
vn 1 0 -0
vt 62687.2 0
v 596058 272250 -1.59226e+06
vt 62687.2 10718.5
vt -74849.1 10718.5
f 15/79/16 14/80/16 41/81/16 40/82/16 

vt 62355.3 0
vn 0.999904 0 -0.0138868
vt 68562.6 0
vn 0.987946 0 -0.154799
v 593869 272250 -1.74991e+06
vt 68562.6 10718.5
vt 62355.3 10718.5
f 14/83/17 13/84/18 42/85/18 41/86/17 

vt 59036.9 0
vt 65244.2 0
vn 0.90539 0 -0.424581
v 547733 272250 -1.90067e+06
vt 65244.2 10718.5
vt 59036.9 10718.5
f 13/87/18 12/88/19 43/89/19 42/90/18 

vt 50772.3 0
vt 56979.6 0
vn 0.750767 0 -0.660567
v 461323 272250 -2.03255e+06
vt 56979.6 10718.5
vt 50772.3 10718.5
f 12/91/19 11/92/20 44/93/20 43/94/19 

vt 38219.3 0
vt 44426.6 0
vn 0.536386 0 -0.843973
v 341518 272250 -2.13505e+06
vt 44426.6 10718.5
vt 38219.3 10718.5
f 11/95/20 10/96/21 45/97/21 44/98/20 

vt 22377.1 0
vt 28584.4 0
vn 0.279309 0 -0.960201
v 197853 272250 -2.2e+06
vt 28584.4 10718.5
vt 22377.1 10718.5
f 10/99/21 9/100/22 46/101/22 45/102/21 

vt 4506.66 0
vt 10714 0
vn -1.17751e-15 0 -1
v 41762.8 272250 -2.22224e+06
vt 10714 10718.5
vt 4506.66 10718.5
f 9/103/22 8/104/23 47/105/23 46/106/22 

vt -13969.5 0
vt -7762.18 0
vn -0.279309 0 -0.960201
v -114327 272250 -2.2e+06
vt -7762.18 10718.5
vt -13969.5 10718.5
f 8/107/23 7/108/24 48/109/24 47/110/23 

vt -31580.8 0
vt -25373.5 0
vn -0.536386 0 -0.843973
v -257992 272250 -2.13505e+06
vt -25373.5 10718.5
vt -31580.8 10718.5
f 7/111/24 6/112/25 49/113/25 48/114/24 

vt -46925.4 0
vt -40718 0
vn -0.750767 0 -0.660567
v -377798 272250 -2.03255e+06
vt -40718 10718.5
vt -46925.4 10718.5
f 6/115/25 5/116/26 50/117/26 49/118/25 

vt -58781.8 0
vt -52574.5 0
vn -0.90539 0 -0.424581
v -464207 272250 -1.90067e+06
vt -52574.5 10718.5
vt -58781.8 10718.5
f 5/119/26 4/120/27 51/121/27 50/122/26 

vt -66206.5 0
vt -59999.2 0
vn -0.987946 0 -0.154799
v -510343 272250 -1.74991e+06
vt -59999.2 10718.5
vt -66206.5 10718.5
f 4/123/27 3/124/28 52/125/28 51/126/27 

vt -68608.3 0
vt -62401 0
vn -0.999904 0 -0.0138868
vt -62401 10718.5
vt -68608.3 10718.5
f 3/127/28 2/128/29 28/129/29 52/130/28 

vt -20178.5 62687.2
vn 0 1 -0
vt -20178.5 -74849.1
vt -18840.2 -79922.8
vt -16340.2 -84536.2
vt -12820.3 -88427.6
vt -8480.08 -91376.4
vt -3565.67 -93215.4
vt 1644.21 -93840.2
vt 6854.08 -93215.4
vt 11768.5 -91376.4
vt 16108.7 -88427.6
vt 19628.6 -84536.2
vt 22128.6 -79922.8
vt 23466.9 -74849.1
vt 23466.9 62687.2
vt 23380.7 68894
vt 21564.3 74829.6
vt 18162.3 80021.7
vt 13445.6 84056.9
vt 7789.47 86614.1
vt 1644.21 87489.8
vt -4501.06 86614.1
vt -10157.2 84056.9
vt -14873.9 80021.7
vt -18275.9 74829.6
vt -20092.3 68894
f 28/131/30 27/132/30 29/133/30 30/134/30 31/135/30 32/136/30 33/137/30 34/138/30 35/139/30 36/140/30 37/141/30 38/142/30 39/143/30 40/144/30 41/145/30 42/146/30 43/147/30 44/148/30 45/149/30 46/150/30 47/151/30 48/152/30 49/153/30 50/154/30 51/155/30 52/156/30 

