solid armybase
facet normal 0.0 0.0 -1.0
  outer loop
    vertex 12190.186706653636 14244.358918853926 0.0
    vertex -17537.214868149487 -15483.042655949212 0.0
    vertex -17537.214868149487 14244.358918853926 0.0
  endloop
endfacet
facet normal 0.0 0.0 -1.0
  outer loop
    vertex -17537.214868149487 -15483.042655949212 0.0
    vertex 12190.186706653636 14244.358918853926 0.0
    vertex 12190.186706653636 -15483.042655949212 0.0
  endloop
endfacet
facet normal 0.0 0.0 1.0
  outer loop
    vertex 12190.186706653636 -15483.042655949212 6214.921259842519
    vertex -17537.214868149487 14244.358918853926 6214.921259842519
    vertex -17537.214868149487 -15483.042655949212 6214.921259842519
  endloop
endfacet
facet normal 0.0 0.0 1.0
  outer loop
    vertex -17537.214868149487 14244.358918853926 6214.921259842519
    vertex 12190.186706653636 -15483.042655949212 6214.921259842519
    vertex 12190.186706653636 14244.358918853926 6214.921259842519
  endloop
endfacet
facet normal -0.0 1.0 0.0
  outer loop
    vertex -17537.214868149487 14244.358918853926 6214.921259842519
    vertex 12190.186706653636 14244.358918853926 0.0
    vertex -17537.214868149487 14244.358918853926 0.0
  endloop
endfacet
facet normal -0.0 1.0 0.0
  outer loop
    vertex 12190.186706653636 14244.358918853926 0.0
    vertex -17537.214868149487 14244.358918853926 6214.921259842519
    vertex 12190.186706653636 14244.358918853926 6214.921259842519
  endloop
endfacet
facet normal 1.0 0.0 0.0
  outer loop
    vertex 12190.186706653636 14244.358918853926 0.0
    vertex 12190.186706653636 -15483.042655949212 6214.921259842519
    vertex 12190.186706653636 -15483.042655949212 0.0
  endloop
endfacet
facet normal 1.0 0.0 0.0
  outer loop
    vertex 12190.186706653636 -15483.042655949212 6214.921259842519
    vertex 12190.186706653636 14244.358918853926 0.0
    vertex 12190.186706653636 14244.358918853926 6214.921259842519
  endloop
endfacet
facet normal -0.0 -1.0 -0.0
  outer loop
    vertex 12190.186706653636 -15483.042655949212 6214.921259842519
    vertex -17537.214868149487 -15483.042655949212 0.0
    vertex 12190.186706653636 -15483.042655949212 0.0
  endloop
endfacet
facet normal -0.0 -1.0 -0.0
  outer loop
    vertex -17537.214868149487 -15483.042655949212 0.0
    vertex 12190.186706653636 -15483.042655949212 6214.921259842519
    vertex -17537.214868149487 -15483.042655949212 6214.921259842519
  endloop
endfacet
facet normal -1.0 0.0 0.0
  outer loop
    vertex -17537.214868149487 14244.358918853926 6214.921259842519
    vertex -17537.214868149487 -15483.042655949212 0.0
    vertex -17537.214868149487 -15483.042655949212 6214.921259842519
  endloop
endfacet
facet normal -1.0 0.0 0.0
  outer loop
    vertex -17537.214868149487 -15483.042655949212 0.0
    vertex -17537.214868149487 14244.358918853926 6214.921259842519
    vertex -17537.214868149487 14244.358918853926 0.0
  endloop
endfacet
endsolid armybase
